<?xml version="1.0" standalone="no"?><!DOCTYPE svg PUBLIC "-//W3C//DTD SVG 1.1//EN" "http://www.w3.org/Graphics/SVG/1.1/DTD/svg11.dtd"><svg t="1667875734285" class="icon" viewBox="0 0 1024 1024" version="1.1" xmlns="http://www.w3.org/2000/svg" p-id="2045" xmlns:xlink="http://www.w3.org/1999/xlink" width="200" height="200"><path d="M490.549063 480.952591c0 10.725469-9.031974 19.757442-19.757442 19.757442L62.094818 500.710033c-10.725469 0-19.757442-9.031974-19.757442-19.757442L42.337376 72.255788c0-10.725469 9.031974-19.757442 19.757442-19.757442l408.696803 0c10.725469 0 19.757442 9.031974 19.757442 19.757442L490.549063 480.952591z" p-id="2046"></path><path d="M490.549063 963.034179c0 10.725469-9.031974 19.757442-19.757442 19.757442L62.094818 982.791621c-10.725469 0-19.757442-9.031974-19.757442-19.757442L42.337376 554.901874c0-10.725469 9.031974-19.757442 19.757442-19.757442l408.696803 0c10.725469 0 19.757442 9.031974 19.757442 19.757442L490.549063 963.034179z" p-id="2047"></path><path d="M955.131202 52.498346 546.434399 52.498346c-10.725469 0-19.757442 9.031974-19.757442 19.757442l0 408.696803c0 10.725469 9.031974 19.757442 19.757442 19.757442l408.696803 0c10.725469 0 19.757442-9.031974 19.757442-19.757442L974.888644 72.255788C974.888644 61.53032 965.85667 52.498346 955.131202 52.498346zM909.971334 421.680265c0 7.902977-6.209482 14.112459-14.112459 14.112459l-289.587652 0c-7.902977 0-14.112459-6.209482-14.112459-14.112459L592.158765 131.528115c0-7.902977 6.209482-14.112459 14.112459-14.112459l289.587652 0c7.902977 0 14.112459 6.209482 14.112459 14.112459L909.971334 421.680265z" p-id="2048"></path><path d="M974.888644 963.034179c0 10.725469-9.031974 19.757442-19.757442 19.757442L546.434399 982.791621c-10.725469 0-19.757442-9.031974-19.757442-19.757442L526.676957 554.901874c0-10.725469 9.031974-19.757442 19.757442-19.757442l408.696803 0c10.725469 0 19.757442 9.031974 19.757442 19.757442L974.888644 963.034179z" p-id="2049"></path></svg>