<?xml version="1.0" encoding="utf-8"?>
<svg version="1.1" xmlns:xlink="http://www.w3.org/1999/xlink" width="14px" height="16px" xmlns="http://www.w3.org/2000/svg">
  <g transform="matrix(1 0 0 1 -943 -459 )">
    <path d="M 13.9951388888889 3.45121951219512  C 13.9455613949508 2.96275144293424  13.5868165819707 2.56256544832198  13.1079861111111 2.46158536585366  C 12.137256631019 2.30844482120764  11.178466137083 2.08696310919048  10.2387152777778 1.79878048780488  C 9.31843799091888 1.42005891344843  8.45552210579715 0.913928305570731  7.67508680555555 0.295121951219512  C 7.26584111910547 -0.000478776388331841  6.7141067975612 -0.000478776388331841  6.30486111111111 0.295121951219512  C 5.56608204267992 0.98077587756309  4.68336283255127 1.49129045594619  3.72178819444444 1.7890243902439  C 2.83142231580589 2.15845276963744  1.89086085641009 2.39174042173297  0.931510416666666 2.48109756097561  C 0.442175812390987 2.56044149072679  0.075687075435846 2.97379587648866  0.0540798611111096 3.47073170731707  C 0.0540798611111096 3.47073170731707  0.0243055555555556 5.95426829268293  0.0243055555555556 8.14024390243902  C 0.0243055555555556 12.0975609756098  4.67760416666667 15.9268292682927  7.00486111111111 15.9268292682927  C 9.33151041666667 15.9268292682927  13.2756944444444 13.2256097560976  13.9064236111111 8.2  C 14.0644097222222 5.23170731707317  13.9550347222222 3.4609756097561  13.9550347222222 3.4609756097561  L 13.9951388888889 3.45060975609756  Z M 11.4612847222222 6.5280487804878  L 11.4612847222222 6.50792682926829  L 6.60017361111111 11.1085365853659  C 6.38142361111111 11.3176829268293  6.04722222222222 11.3506097560976  5.79201388888889 11.1878048780488  L 5.66440972222222 11.0786585365854  L 2.98229166666667 8.27926829268293  C 2.86848132792849 8.15519355973218  2.8053090708417 7.99272033607344  2.8053090708417 7.82408536585366  C 2.8053090708417 7.45288845904634  3.10517877689688 7.15197391080979  3.47508680555556 7.15197391080979  C 3.66234911813474 7.15197391080979  3.84105981266119 7.23064239773367  3.96788194444445 7.36890243902439  L 6.17664930555556 9.69390243902439  L 10.5540798611111 5.53841463414634  C 10.6777477441714 5.42425598908164  10.8396477794341 5.36089590373518  11.0076822916667 5.36089590373518  C 11.3777137943784 5.36089590373518  11.6776835959306 5.66191089623356  11.6776835959306 6.03323170731707  C 11.6776835959306 6.22128108013153  11.5992023362419 6.40073611403442  11.4612847222222 6.5280487804878  Z " fill-rule="nonzero" fill="#d9d9d9" stroke="none" transform="matrix(1 0 0 1 943 459 )" />
  </g>
</svg>