<?xml version="1.0" encoding="utf-8"?>
<svg version="1.1" xmlns:xlink="http://www.w3.org/1999/xlink" width="13px" height="16px" xmlns="http://www.w3.org/2000/svg">
  <g transform="matrix(1 0 0 1 -943 -401 )">
    <path d="M 3.6825161637931 4.13877688172043  C 3.6825161637931 2.6434811827957  4.94679418103448 1.43212365591398  6.50350215517241 1.43212365591398  C 8.06196120689655 1.43212365591398  9.32448814655172 2.6434811827957  9.32448814655172 4.13877688172043  L 10.7586206896552 4.13877688172043  C 10.7586206896552 1.88407258064516  8.85344827586207 0.0561155913978496  6.50350215517241 0.0561155913978496  C 4.15355603448276 0.0561155913978496  2.24838362068965 1.88407258064516  2.24838362068965 4.13877688172043  L 3.6825161637931 4.13877688172043  Z M 11.975619612069 16  C 12.4484105603448 15.8844086021505  12.8213900862069 15.5248655913978  12.9124461206897 15.0712365591398  L 12.9124461206897 7.41162634408602  C 12.8529094827586 6.85047043010753  12.3696120689655 6.40860215053763  11.7759967672414 6.38676075268817  L 1.27128232758621 6.38676075268817  C 0.614628232758621 6.38676075268817  0.0805495689655172 6.89751344086022  0.0787984913793103 7.52755376344086  L 0.0787984913793103 14.9922715053763  C 0.148841594827586 15.4996639784946  0.565598060344828 15.9028897849462  1.0926724137931 16  L 11.975619612069 16  Z " fill-rule="nonzero" fill="#d9d9d9" stroke="none" transform="matrix(1 0 0 1 943 401 )" />
  </g>
</svg>