<?xml version="1.0" encoding="utf-8"?>
<svg version="1.1" xmlns:xlink="http://www.w3.org/1999/xlink" width="25px" height="25px" xmlns="http://www.w3.org/2000/svg">
  <defs>
    <filter x="1269px" y="18px" width="25px" height="25px" filterUnits="userSpaceOnUse" id="filter685">
      <feOffset dx="0" dy="2" in="SourceAlpha" result="shadowOffsetInner" />
      <feGaussianBlur stdDeviation="0" in="shadowOffsetInner" result="shadowGaussian" />
      <feComposite in2="shadowGaussian" operator="atop" in="SourceAlpha" result="shadowComposite" />
      <feColorMatrix type="matrix" values="0 0 0 0 0  0 0 0 0 0  0 0 0 0 0  0 0 0 0.156862745098039 0  " in="shadowComposite" />
    </filter>
    <g id="widget686">
      <path d="M 17.6602512804097 1.53349071702944  L 17.6652528809218 1.52848911651728  C 17.7403546308365 1.52832667913201  17.8123982825375 1.55822479458808  17.8653169014085 1.6115156850192  L 22.4177736875797 6.25200064020485  C 22.5470463211002 6.38322824233044  22.5470463211002 6.59392444652998  22.4177736875799 6.72515204865556  L 20.2720870678615 8.91485275288091  L 18 6.62211907810498  L 18 21.4468629961588  L 10.5249679897568 21.4468629961588  L 10.5249679897568 21.4708706786171  L 6 21.4708706786171  L 6 6.64612676056338  L 3.77380761843801 8.9388604353393  L 1.6271206786173 6.75116037131881  C 1.49838382934672 6.61971364681282  1.49838382934672 6.4094556873741  1.6271206786173 6.27800896286811  L 6.18657970550589 1.63052176696542  C 6.23917363929468 1.57674911579949  6.31143014156146 1.54676266735884  6.38664372599237 1.5474951984635  L 8.24923975672232 1.5474951984635  C 10.4168705847896 3.58856919473829  13.7990785189238 3.58856919473821  15.9667093469911 1.5474951984635  L 17.6602512804097 1.53349071702944  Z M 18.9236555697826 0.531169974391805  C 18.5923741798078 0.192548856750669  18.1389724761693 0.00116864639142378  17.6652528809218 0  L 17.6512483994879 0  L 15.6876200384124 0.0170054417413539  C 15.5087490503688 0.0184543244495217  15.3364355133183 0.0845374541225929  15.2024647887329 0.203064980793851  C 14.4017173428952 1.06008230136321  13.2813665056262 1.54657448970765  12.1084747119082 1.54657448970765  C 10.9355829181902 1.54657448970765  9.81523208092131 1.06008230136332  9.01448463508359 0.203064980793851  C 8.87895028692628 0.0825408595014707  8.70369722680516 0.0162866538459099  8.52232714468664 0.0170054417413539  L 6.39064500640234 0.0170054417413539  C 5.91650280561385 0.0170772097594458  5.46257399740125 0.209040743916212  5.1322423175418 0.549175736235593  L 0.568782010243467 5.19466229193342  C -0.14610996506849 5.92746868532217  -0.14610996506849 7.0966990483526  0.568782010243467 7.82950544174136  L 3.02656850192102 10.3303056978233  C 3.22315609260295 10.5337255847462  3.49391932266485 10.6485979211559  3.77680857874566 10.6485979211559  C 4.05969783482647 10.6485979211559  4.33046106488791 10.533725584746  5 10.3303056978233  L 5 22.2351152368758  C 4.52702020086622 22.2377933374952  4.52700597321291 22.2404715703718  4.52700597321291 22.2431498221519  C 4.52700597321291 22.6580954124657  4.8613603936119 22.9955411258967  5.27628841229239 22.9993597951344  L 12.0234475032014 22.9993597951344  L 12.0234475032014 22.9753521126761  L 18.7706065941104 22.9753521126761  C 19.1855346127911 22.9715334434384  19.5198890331899 22.6340877300074  19.5198890331899 22.2191421396935  C 19.5198890331899 22.2164638879079  19.5198748055366 22.2137856550423  19.5198463508325 22.2111075544174  L 19.5198463508325 10.3082986555698  C 19.7164339415144 10.5117185424924  19.9871971715766 10.6265908789023  20.2700864276569 10.6265908789023  C 20.5529756837375 10.6265908789023  20.8237389137996 10.5117185424925  21.0203265044815 10.3082986555698  L 23.4761123559542 7.80749839948784  C 24.190353994901 7.07481604034005  24.190353994901 5.90633792893012  23.476112355954 5.17365556978233  L 18.9236555697826 0.531169974391805  Z " fill-rule="nonzero" fill="#3bcbd0" stroke="none" transform="matrix(1 0 0 1 1269 18 )" />
    </g>
  </defs>
  <g transform="matrix(1 0 0 1 -1269 -18 )">
    <use xlink:href="#widget686" filter="url(#filter685)" />
    <use xlink:href="#widget686" />
  </g>
</svg>