<?xml version="1.0" encoding="utf-8"?>
<svg version="1.1" xmlns:xlink="http://www.w3.org/1999/xlink" width="25px" height="26px" xmlns="http://www.w3.org/2000/svg">
  <defs>
    <filter x="1327px" y="18px" width="25px" height="26px" filterUnits="userSpaceOnUse" id="filter683">
      <feOffset dx="0" dy="2" in="SourceAlpha" result="shadowOffsetInner" />
      <feGaussianBlur stdDeviation="0" in="shadowOffsetInner" result="shadowGaussian" />
      <feComposite in2="shadowGaussian" operator="atop" in="SourceAlpha" result="shadowComposite" />
      <feColorMatrix type="matrix" values="0 0 0 0 0  0 0 0 0 0  0 0 0 0 0  0 0 0 0.156862745098039 0  " in="shadowComposite" />
    </filter>
    <g id="widget684">
      <path d="M 12.5475228134508 23.9409558731614  L 11.691487145298 23.9409558731614  C 11.6891509242419 23.9409635385394  11.6868146921836 23.9409673712361  11.6844784585521 23.9409673712361  C 10.5070871552791 23.9409673712361  9.5516987912265 22.9882537954578  9.54839784991054 21.8108671194633  C 9.54839784990872 21.5750305337994  9.73958022766328 21.3838481560447  9.97541564231688 21.3838481560447  C 9.9757489898825 21.3838481560447  9.97608233733558 21.3838485463818  9.97641568398694 21.3838493270553  L 14.2625942747616 21.3838493270553  C 14.2629276214141 21.3838485463818  14.2632609688651 21.3838481560447  14.2635943164319 21.3838481560447  C 14.4994297310852 21.3838481560447  14.6906121088398 21.5750305337994  14.6906121088398 21.8108659484527  C 14.6873111675222 22.9882537954578  13.7319228034696 23.9409673712361  12.5545315001966 23.9409673712361  C 12.5521952665658 23.9409673712361  12.5498590345062 23.9409635385394  12.5475228134508 23.9409558731614  Z M 23.0029584566025 20  L 1.0000416684029 20  C 0.449680730454929 20.4298164549534  0.00275180464700497 19.9851221737748  0 19.4347681153381  L 0 19.3637651568815  C 0.00329983778874521 18.8138020768542  0.45006868886253 18.369713838887  1.0000416684029 18.3697237384891  L 2.80011667152803 18.3697237384891  L 2.80011667152803 11.4404350181258  C 2.79450968390847 7.0839839296517  5.82929520539915 3.31403556909602  10.0864202675111 2.38905787741156  L 10.0864202675111 2.06504437684903  C 10.0911545035924 0.945568893809515  11.0000013060414 0.0405574566100633  12.1194867995239 0.0405574566100633  C 12.1913136194412 0.0405574566100633  12.2630899760579 0.0443638077349746  12.3345139380806 0.0519604983540916  C 13.395425327074 0.197396400597022  14.1791846939777 1.11443355342492  14.1575898995793 2.18504937705737  L 14.1575898995791 2.38505771073794  C 18.4143480884334 3.30995629701084  21.449029198774 7.07935844477156  21.4438934955626 11.4354348097837  L 21.4438934955626 18.3607233634735  L 23.0029584566025 18.3607233634735  C 23.5529314361429 18.3607134638713  23.9997002872167 18.8048017018387  24.0030001250054 19.3547647818659  L 24.0030001250054 19.4257677403225  C 24.0002483203587 19.9761217987592  23.5533193945507 20.4208160799378  23.0029584566025 20  Z M 11.5854827284468 2.06204425184383  L 11.5844826867788 2.07004458519105  L 11.5844826867788 3.01208383682653  C 11.5835700600294 3.38092012532331  11.3132620286858 3.69372941945716  10.9484561856746 3.74811450477103  C 7.12665936731924 4.30655304524876  4.29436087917634 7.58605655783556  4.29817909079543 11.448435351473  L 4.29817909079543 18  L 19.9418309096213 18  L 19.9418309096213 11.4404350181258  C 19.9465096959409 7.57773658935682  17.1137921309178 4.29774782985644  13.2915538147422 3.74011417142381  C 12.9271451115555 3.68528310006305  12.6573651623648 3.37259326919012  12.6565273553065 3.00408350347931  L 12.6565273553063 2.06204425184383  C 12.6565273553063 1.76628344494249  12.4167658487777 1.52652193841412  12.1210050418765 1.52652193841412  C 11.8252442349751 1.52652193841412  11.5854827284468 1.76628344494249  11.5854827284468 2.06204425184383  Z " fill-rule="nonzero" fill="#3bcbd0" stroke="none" transform="matrix(1 0 0 1 1327 18 )" />
    </g>
  </defs>
  <g transform="matrix(1 0 0 1 -1327 -18 )">
    <use xlink:href="#widget684" filter="url(#filter683)" />
    <use xlink:href="#widget684" />
  </g>
</svg>