<?xml version="1.0" encoding="utf-8"?>
<svg version="1.1" xmlns:xlink="http://www.w3.org/1999/xlink" width="23px" height="24px" xmlns="http://www.w3.org/2000/svg">
  <g transform="matrix(1 0 0 1 -1387 -18 )">
    <path d="M 11.139650872818 13.4399002493766  C 8.07978867325346 13.4349492059449  5.60159502308943 10.9536315947597  5.60049875311734 7.89376558603491  C 5.60435166851789 4.83730526959944  8.08318372689905 2.36159600997681  11.1396464717893 2.36159600997681  C 14.1988357144928 2.36159600997681  16.67879859149 4.84155888697393  16.67879859149 7.90074812967756  C 16.67879859149 10.9599373723812  14.1988357144928 13.4399002493783  11.1396464717893 13.4399002493783  Z M 21.2593516209481 21.5216957605985  L 21.2613466334165 21.5206982543641  C 20.4098879236733 18.2366002944302  18.0796908173822 15.5351789378568  14.956109725686 14.2109725685786  C 17.1680172295391 12.8742092779156  18.5197007481299 10.477968626777  18.5197007481299 7.89350138944047  C 18.5197007481299 3.81678602909347  15.2148699738136 0.511955254777126  11.1381546134667 0.511955254777126  C 7.06143925311949 0.511955254777126  3.75660847880317 3.81678602909347  3.75660847880317 7.89350138944047  C 3.75660847880317 10.477968626777  5.10829199739396 12.8742092779156  7.32019950124686 14.2109725685785  C 4.19660547763669 15.5354374517921  1.86619150491606 18.2366828792042  1.01396508728226 21.5206982543641  C 0.989453455142211 21.6047302889663  0.977010964197916 21.6918199183796  0.977010964197916 21.7793539286244  C 0.977010964197916 22.2894942561489  1.39056140974049 22.7030447016917  1.90070173726508 22.7030447016917  C 2.32719403762121 22.7030447016917  2.69823766384479 22.4110475033326  2.79850374064836 21.9965087281795  C 3.65822524144937 18.0793022807371  7.12821356391578 15.2882939788902  11.1386533665836 15.2882939788902  C 15.1490931692517 15.2882939788902  18.6190814917181 18.0793022807373  19.4788029925191 21.9965087281796  C 19.5857206243907 22.4009221576137  19.9515755208067 22.6826232360512  20.3698835435744 22.6826232360512  C 20.4495826419816 22.6826232360512  20.5289451454898 22.6722860372648  20.605985037407 22.6518703241895  C 21.0982772986476 22.5199177538902  21.3906616410363 22.0141597998038  21.2593516209481 21.5216957605985  Z " fill-rule="nonzero" fill="#ffffff" stroke="none" transform="matrix(1 0 0 1 1387 18 )" />
  </g>
</svg>