<?xml version="1.0" encoding="utf-8"?>
<svg version="1.1" xmlns:xlink="http://www.w3.org/1999/xlink" width="44px" height="44px" xmlns="http://www.w3.org/2000/svg">
  <g transform="matrix(1 0 0 1 -16 -8 )">
    <path d="M 22.4850830220942 43.9980200692976  C 22.0929126302115 44.0115621561641  21.7121723897451 43.8646285985757  21.4307699230527 43.5911443099492  C 21.1252448533681 43.279417466307  20.9554821484877 42.8594594123051  20.9585564505242 42.4229851955182  C 20.9252892308233 41.9894988729201  21.0623758968643 41.5601263878329  21.3406830760923 41.226117085902  C 21.9357581746637 40.5997986953214  22.9219310450243 40.5628831333293  23.5621653242137 41.1429599964001  C 24.1574119525982 41.8071496909857  24.1944499462817 42.8013493191881  23.6502722404716 43.5079872204473  C 23.3749623660324 43.8207610803673  22.9779890225728 43.9993990849241  22.5613103541376 43.9980200692976  L 22.4850830220942 43.9980200692976  Z M 22.4741934032309 41.1261305854295  L 22.4494442694506 41.1261305854295  C 22.2202796563358 41.1327290177502  22.0138252987358 41.2662946834804  21.9138730144445 41.4726184583539  C 21.6742698490507 42.0613075276357  21.6984169182519 42.724450920623  21.9802006929757 43.2941547045853  C 22.0963337077899 43.4934626391768  22.3141234656569 43.6111455258839  22.544480943167 43.5990640327589  C 22.7734695315655 43.5951994457398  22.9802067678257 43.4610892311398  23.0770823021194 43.2535661251856  C 23.2149036686302 42.9696006220242  23.27078576506 42.6528211306059  23.2384466543671 42.3388381406651  C 23.2452971997369 42.0215484764808  23.165553061516 41.7083901654418  23.0077847275345 41.4330198443054  C 22.8983869761997 41.2418750475134  22.6944245557142 41.1245682750635  22.4741934032309 41.1261305854295  Z M 24.448184313549 43.7940872069478  L 24.3848265310714 43.4169104081357  C 24.4876318863108 43.411519786508  24.5814068798211 43.3565100462205  24.6362777302794 43.269405570805  C 24.6746573739453 43.1130738822057  24.6726132717128 42.9495457036071  24.6303379381722 42.7942222022229  L 24.4323448679296 41.6062637807677  C 24.4229487509107 41.4452744265411  24.3721403108212 41.2894391438504  24.2848400305989 41.1538496152635  C 24.2045941538903 41.0891235487585  24.0979351004387 41.0673488631057  23.9987400440984 41.0954416595419  L 23.9343922962696 40.7133150339738  L 25.5391261305854 40.4529541466049  C 25.8401741179068 40.3808181225567  26.1561446589657 40.4032886752578  26.4439544615938 40.5173018944337  C 26.6636294784985 40.6349159872909  26.8116168855246 40.8528274441367  26.8399406020789 41.100391486298  C 26.8762999824473 41.2846508362678  26.8494431151489 41.4757880217162  26.7637132700356 41.6428924987625  C 26.6600216481671 41.8123775851331  26.5060159641511 41.9452723776323  26.3231786887459 42.0230391936282  L 27.0161544345948 42.7021554245601  C 27.0820128154114 42.7782426290756  27.164725014479 42.8379038874195  27.2577059802907 42.8763893263736  C 27.3443995156178 42.9095144031609  27.4375185333991 42.9223817583452  27.5299464518742 42.9140080097197  L 27.5883544075957 43.2842550510732  L 26.6874859379922 43.4337398191063  L 25.5737749178779 42.2378616748414  L 25.2926247581335 42.2843900463484  L 25.3589524366647 42.6724564640238  C 25.3663917169588 42.8344593018903  25.4158610883753 42.9917377861868  25.5024974125906 43.1288304909328  C 25.584091751406 43.1914550925083  25.6898418637642 43.2133344260997  25.7895873644423 43.1882284120056  L 25.8539351122711 43.5683751068713  L 24.448184313549 43.7940872069478  Z M 25.5826846060388 40.8509202177924  C 25.521295006124 40.850927444946  25.4600202975312 40.8562268792026  25.3995410160644 40.8667596634118  C 25.3035114241558 40.8703778060237  25.2123483183571 40.9099524876107  25.1441299554516 40.9776357827476  C 25.1067832929125 41.0829703254811  25.1016142637719 41.1970335685185  25.1292804751834 41.305314313999  L 25.2282770103046 41.8735544255951  L 25.290644827431 41.8666246681366  C 25.3064842730504 41.8666246681366  25.3411330603429 41.8567250146245  25.3896413625523 41.8488052918148  C 25.5965871238223 41.8296037169184  25.7947273498063 41.7558135637934  25.9638212662557 41.6349727759528  C 26.0768317992527 41.5369703081703  26.1276450222636 41.385289045451  26.0964766233182 41.2389866354678  C 26.0776075639521 41.1013680519834  25.9940912199541 40.9810603670172  25.8717544885929 40.9152679656212  C 25.7821903952923 40.8702758131654  25.6828766594108 40.8481683034658  25.5826846060388 40.8509202177924  Z M 19.3439229626963 43.7525086621968  L 17.9668811591594 43.5782747603834  L 18.0153894613689 43.1941682041129  C 18.1096415699779 43.2147170376236  18.2080873319604 43.1901970894718  18.2816901408451 43.1278405255816  C 18.3589134014005 42.985172570166  18.4022706514118 42.8266476248121  18.4084057058003 42.6645367412141  L 18.5588804391846 41.4765783197588  C 18.5961640012844 41.3166988289969  18.5961640012844 41.1503848230753  18.5588804391846 40.9905053323134  C 18.503438545296 40.9105549940206  18.4135667688462 40.8614006346562  18.3163389281375 40.8578499752509  L 18.3638572649957 40.4796832110876  L 19.8596949106781 40.667776627818  C 20.1534948372081 40.6812330811607  20.4324344068607 40.8008288613396  20.6447374341898 41.0043648472303  C 20.8129947571596 41.2093202643572  20.8812148275299 41.4785718186911  20.8308509202178 41.7389191378302  C 20.8154838198509 41.9914818234963  20.6889531420278 42.2242402623571  20.4853530126446 42.3744768933087  C 20.2382919927734 42.5124957207375  19.9500748546265 42.5577819702149  19.6725914592989 42.5021824236152  L 19.1865184718535 42.4388246411376  L 19.1439499617514 42.7595734149305  C 19.1084393108017 42.9162210098327  19.1104746201903 43.079045760918  19.1498897538586 43.2347567835126  C 19.2026764910458 43.3171424315723  19.2926554489736 43.3682415928647  19.3904513342033 43.3713720019799  L 19.3439229626963 43.7525086621968  Z M 19.4132205372812 41.0687125950592  L 19.4132205372812 41.0706925257616  C 19.3526384595637 41.1630453428569  19.3184098476844 41.270180898039  19.3142240021599 41.3805516806912  L 19.2271070512532 42.0517481888134  C 19.2452786813312 42.0563897330415  19.2638341981234 42.0593718696689  19.2825451109211 42.0606578769743  C 19.3043243486478 42.0606578769743  19.333033343833 42.0665976690816  19.3647122350718 42.0725374611889  C 19.5379322883652 42.106703363652  19.7176489085037 42.0790277048002  19.8725644602439 41.9943301984431  C 20.1055225007791 41.8012686179153  20.1593051656711 41.4654445765026  19.9982900598479 41.2092876749314  C 19.9099759594345 41.097883529858  19.7787869228799 41.0288745024101  19.6369527066553 41.0192143274985  C 19.6133266699966 41.0160140573928  19.5895168058214 41.0143605946029  19.565675201368 41.0142645007425  C 19.5094200005786 41.0098601270578  19.4539582161007 41.0296679072285  19.4132205372812 41.0687125950592  Z M 17.4877379291725 43.5089771857985  L 16.6076587319444 43.2486162984296  L 16.1314853980111 41.6943706970256  L 15.8602348917788 41.6112136075237  L 15.7444089456869 41.9943301984431  C 15.6843725789086 42.1433593645992  15.6609484614062 42.3046123474057  15.6761013364532 42.4645637402691  C 15.722128285609 42.5561987327362  15.8080665795999 42.6212924192484  15.9087431939882 42.6407775727849  L 15.7978670746524 43.0110246141385  L 14.427755028574 42.6061287854925  L 14.539621113261 42.2339018134365  C 14.6368524674222 42.2730814174326  14.746844883117 42.264282024177  14.8366107186249 42.2101426450074  C 14.9400465572698 42.0873757107037  15.0102618061883 41.9401281984087  15.0405435809747 41.7824776132835  L 15.3900013499528 40.6281780137695  C 15.4512851593479 40.4805227319859  15.4750914286486 40.3200004589872  15.4592989245376 40.1609143679971  C 15.413036294575 40.0687487902379  15.3281238436009 40.0019800253694  15.2276470323539 39.978760743374  L 15.3355532556361 39.6144534941277  L 16.8987085452009 40.0728074517392  C 17.1991620474973 40.140166284706  17.471555596579 40.2984863931824  17.6788012419565 40.5262115825946  C 17.8261317230882 40.725900191739  17.8633222284037 40.9862337289481  17.7777977770778 41.2191873284435  C 17.7310478748184 41.401303411254  17.6234673639972 41.5619756027402  17.4728884489043 41.6745713900014  C 17.3019647616179 41.7803124353405  17.103534767417 41.8330204025501  16.9026684066058 41.8260360887369  L 17.2283670071548 42.7397741079062  C 17.2558362263185 42.837215647857  17.3048984546426 42.9272194598171  17.3719119830806 43.0031048913288  C 17.4377231515886 43.0656000556655  17.5146023749307 43.1152861912752  17.5986140485083 43.1496197633083  L 17.4877379291725 43.5089771857985  Z M 16.3067092651757 40.3727669531566  L 16.3106691265806 40.3717769878054  C 16.2273490276128 40.4465931717982  16.1718598304716 40.5474508949041  16.1532646357377 40.6578769743059  L 15.986950456734 41.2092876749314  L 16.0423885164019 41.2300769473068  C 16.0641677541286 41.2379966701166  16.0958466453674 41.2429464968726  16.1413850515232 41.2558160464384  C 16.3360300236825 41.3314606881715  16.5479862308317 41.3510100470833  16.7531836385727 41.3122440714575  C 16.8996867013961 41.2761447315131  17.0140739039921 41.1617575289172  17.0501732439365 41.0152544660937  C 17.096202975011 40.8846710035319  17.0747096894138 40.7397766126958  16.9927552535661 40.6281780137695  C 16.8929143057928 40.5022762740759  16.7533090044769 40.4139759209936  16.596769113081 40.3777167799127  C 16.5411384692875 40.3592064589928  16.4831155730259 40.3488690464405  16.42451514197 40.3470278540251  C 16.3835254747776 40.3431499817945  16.3423464821823 40.3521470726136  16.3067092651757 40.3727669531566  Z M 27.8754443594474 43.185258515952  L 27.7398191063313 42.8249111281105  C 27.9335379553119 42.685026612955  28.0322553106475 42.4481814852312  27.9952301669442 42.2121225757098  L 27.9952301669442 42.1547045853395  L 27.9457318993835 39.8084867029654  L 28.5506007289745 39.5778247761328  L 30.1345452909148 41.4518291859785  L 30.149394771183 41.4656887008955  C 30.3186788462404 41.6686315978941  30.4879629212978 41.7488187913423  30.6443774467894 41.7092201772938  L 30.7829725959592 42.0715474958377  L 29.4960176393826 42.566530171444  L 29.3574224902128 42.2150924717635  L 29.3920712775053 42.2012329568465  C 29.4610105530036 42.1801173487909  29.523159476866 42.1411889019759  29.572244971426 42.0883769068083  C 29.5997308196414 42.0427207490864  29.6030606952107 41.9864828505836  29.5811546595869 41.9379021734239  C 29.5682851100212 41.9111731089412  29.5613553525627 41.8903838365657  29.5494757683481 41.868604598839  C 29.5375961841336 41.8468253611124  29.5237366692166 41.830985915493  29.5128470503533 41.817126400576  L 29.2158574449894 41.4676686315979  L 28.4011159609414 41.7775277865275  L 28.4446744363947 42.2259820906268  C 28.4463671731342 42.2423602221545  28.4493462668715 42.2585797325025  28.4535841245557 42.2744903928363  C 28.4574888597329 42.287605542694  28.4621157597202 42.3004947640874  28.4674436394726 42.3130990415336  C 28.4857748039458 42.3762958115177  28.5326844744724 42.4272367818553  28.5941592044279 42.4507042253521  C 28.6791719090869 42.4570135541294  28.7645020406931 42.4438077004285  28.8436304729335 42.4120955766548  L 28.981235656752 42.7625433109841  L 27.8754443594474 43.185258515952  Z M 28.3733969311074 40.4103856365027  L 28.4129955451559 41.3617423390181  L 28.9475768348108 41.1548395806147  L 28.3733969311074 40.4103856365027  Z M 12.4745533906313 41.835935742249  C 12.0915074899108 41.6720325581771  11.7973046373419 41.35151008767  11.6667416640418 40.9558565450209  C 11.5420928550626 40.538838887074  11.5883931479907 40.0893698895715  11.7954371596994 39.7065202717905  C 11.9652342513419 39.30494821734  12.2848339213403 38.9853485473415  12.6864059757908 38.815551455699  C 13.0774977694236 38.6648775246249  13.514460901314 38.6893936079323  13.8862439814606 38.8828690995815  C 14.2725518062849 39.0419993552721  14.5691472721778 39.3632205741329  14.6970256041038 39.7609683661072  C 14.8218395880325 40.1771090343437  14.7762597634095 40.6257854329766  14.5703100391486 41.0083247086352  C 14.3991769718821 41.4117437174355  14.0763391348165 41.7317371682714  13.6714215002475 41.8992935247266  C 13.5077634259577 41.9649980479905  13.3329941287599 41.9986075282208  13.1566395176169 41.9982900598479  C 12.920489211196 41.9944498348206  12.6880322264078 41.9390385768188  12.4755433559825 41.835935742249  Z M 13.0883319083832 39.3006344777933  L 13.0833820816271 39.3006344777933  C 12.5958322841264 39.7115341381128  12.3075490728665 40.3115235715474  12.291409800657 40.9489267875624  C 12.3003299901221 41.1785644670128  12.439441285628 41.383004271458  12.649777257796 41.4755883544076  C 12.8567567837819 41.5737931174982  13.100973185448 41.5502083559666  13.2853350132745 41.4142105026324  C 13.5374623381781 41.2224747425999  13.7342251424069 40.9672979808656  13.855555055573 40.6747063852765  C 14.0077360894524 40.3969522671298  14.0826064097115 40.0834541681456  14.0723574674886 39.7669081582145  C 14.0646157648202 39.5384512706883  13.9291532161233 39.3337267973752  13.7219097331593 39.2372766953157  C 13.6395157760025 39.1983899642698  13.5496840038328 39.177789445088  13.4585789497368 39.1768888088917  C 13.3256392263154 39.1806025774158  13.1967886445575 39.2236676114258  13.0883319083832 39.3006344777933  Z M 31.3789317373892 41.8398956036539  L 31.1997480088197 41.4983575574855  C 31.3155739549116 41.4330198443054  31.3769518066868 41.3607523736669  31.3868514601989 41.2825451109211  C 31.3728511836822 41.1232836431169  31.3175756171698 40.9704228172061  31.2264770733024 40.8390406335778  L 30.4048058317959 39.2927147549836  L 30.3642172523962 39.3125140620078  C 30.214625480191 39.3838525266167  30.0948090246093 39.5054206847654  30.0256491022814 39.6560320388786  C 29.9550643939563 39.8517526580519  29.9296814700518 40.0609079510249  29.9514017009405 40.2678306259281  L 29.6544120955767 40.2876299329523  L 29.4900778472754 39.2897448589299  L 31.569005084822 38.2087026954057  L 32.3094991675291 38.9016784412546  L 32.12239571615 39.136300229492  C 31.9650046058913 38.9985748485608  31.7769625844035 38.9004807254381  31.5739549115781 38.8502002429915  C 31.4103904688814 38.8209259045931  31.2417424595525 38.8503779478023  31.0977815776448 38.9333573324934  L 31.0552130675426 38.9541466048688  L 31.8828241011565 40.4945326913558  C 31.9435666337743 40.643146105698  32.0405647314079 40.7741786235539  32.1649642262521 40.8756693515727  C 32.2597220553149 40.91200464944  32.3661686077688 40.9005865071353  32.4510642127526 40.8449804256851  L 32.6342078027269 41.1875084372047  L 31.3789317373892 41.8398956036539  Z M 33.6984205552806 40.5598704045358  L 33.4865679701211 40.2430814921478  C 33.5760761503682 40.1898226036853  33.6378961967623 40.1001654603769  33.6558520451784 39.997570085047  C 33.6234510533556 39.8386833817481  33.5508518219256 39.6907581871913  33.4449894253701 39.5679251226207  L 32.7520136795212 38.577959771408  C 32.6724195841749 38.4385135190244  32.560351673628 38.3203328133568  32.425325113621 38.233451829186  C 32.3208105600373 38.2121497386748  32.2122149171664 38.2378507074876  32.1283355082572 38.3037393691221  L 31.9075732349368 37.9879404220852  L 33.095531656392 37.1751788687396  L 33.3172838950637 37.4929577464789  C 33.2252452430155 37.5424904632106  33.1623583400244 37.6329593411978  33.1479998200063 37.7364892228772  C 33.1803226131267 37.8935453307189  33.2510695572336 38.0401411620173  33.3539126130585 38.1631642892499  L 34.0468883589074 39.1531296404626  C 34.1854835080772 39.3511227107051  34.2933897313594 39.4709085182019  34.3755568555101 39.4976375826846  C 34.4771372997164 39.5204273532215  34.5835656436663 39.4956426703838  34.6646267380642 39.4303199388021  L 34.8863789767358 39.7480988165414  L 33.6984205552806 40.5598704045358  Z M 10.3233586824461 40.4143454979076  L 10.2718804841831 40.4123655672051  C 9.97799051679163 40.3975135429307  9.69615707736843 40.2908738631489  9.4660486882959 40.1074562390316  C 9.12603286868569 39.875288023495  8.90804181585218 39.5028866415711  8.87206947756828 39.0927417540386  C 8.85904022593172 38.2056902890409  9.45861802498404 37.4264852150331  10.3193988210413 37.2118075867345  C 10.7131149215087 37.132836563012  11.1216261646559 37.2313428202248  11.4360797372092 37.4810781622643  C 11.5263946072476 37.5497943698235  11.6066939170967 37.6307600639867  11.6746613868515 37.721639742609  C 11.746466847087 37.8248537884472  11.8071903590074 37.9353506707941  11.8558250461234 38.0512982045628  L 12.0112496062638 37.9305224317149  L 12.1914233001845 38.066147684831  L 11.7855375061873 39.2055978040769  L 11.4835980740674 39.1066012689556  C 11.5580421733447 38.8647403515456  11.5756587844977 38.6089607088425  11.5350762723305 38.35917742879  C 11.5072290991384 38.1657584063909  11.4088564657551 37.9894633644854  11.2588759393421 37.8641947531836  C 11.071960020865 37.7228049942058  10.8232941611777 37.6932830199963  10.6084687035954 37.786977455789  C 10.3224398525541 37.9077272423966  10.0773472925077 38.1084762677362  9.90262340818071 38.3651172208973  C 9.70022719137881 38.5984277295105  9.57352205619048 38.8877435422838  9.53930612428564 39.1947081852135  C 9.52034240712526 39.4361616468497  9.62881447976475 39.6699959072456  9.82540611078611 39.811456599019  C 9.97989675452745 39.9226387492861  10.1667702161999 39.9797099740799  10.3570175043873 39.9738109166179  C 10.5816817247548 39.9779572234599  10.8041630505272 39.9291198592659  11.0064347747829 39.8312559060433  L 11.1836385726499 40.1718039868605  C 10.92073001007 40.3210740611526  10.6255202712024 40.4043035042166  10.3233586824461 40.4143454979076  Z M 21.9891103811367 39.5966341178059  C 12.3588367299232 39.5851809193053  4.55450715081665 31.7817369881311  4.5419610313639 22.1514646987355  C 4.5419607318339 22.150144782377  4.54196058206889 22.1488248660024  4.54196058206889 22.1475049496098  C 4.54196058206889 12.5106169501774  12.3542018631117 4.69837566913465  21.9910898625441 4.69837566913465  C 31.6279778619765 4.69837566913465  39.4402191430193 12.5106169501774  39.4402191430193 22.1475049496098  C 39.4402191430193 31.7843929490422  31.6279778619765 39.596634230085  21.9910898625441 39.596634230085  C 21.9904300354215 39.596634230085  21.989770208255 39.5966341926586  21.9891103811367 39.5966341178059  Z M 4.93992710255141 22.1514646987355  L 4.93794717184899 22.1514646987355  C 4.93904058346809 31.5672420868829  12.5723428491898 39.1996579832233  21.9881203008236 39.1996579832233  C 31.4046709654227 39.1996579832233  39.03829354476 31.5660354038859  39.03829354476 22.1494847392868  C 39.03829354476 12.733320722776  31.405274381772 5.09985830790255  21.9891103811367 5.09931152409666  C 12.5760195257359 5.1091360240494  4.94811202431629 12.7383722748886  4.93992710255141 22.1514646987355  Z M 35.4071007514737 39.0719524816631  C 35.3193250653997 39.0742740903677  35.2315194802561 39.0686412792453  35.1447599334023 39.0551230706925  C 34.7154461664787 38.9683517099985  34.3368739080834 38.717627493838  34.0894568690096 38.3562075327363  C 33.813308942376 38.021415502592  33.6793279399737 37.5917522879915  33.7162399316024 37.1593394231202  C 33.7665547116448 36.7458776472877  33.9923211689778 36.3740482263448  34.3359582414615 36.1386851460199  C 34.6631142520138 35.8781340929025  35.0861301023638 35.7700380493718  35.4981775637853 35.8416955406561  C 35.9273941872012 35.9249055238859  36.3065424923598 36.1738772064479  36.553480628178 36.534671286505  C 36.8320244432586 36.8686337714805  36.9669311550222 37.2993385768472  36.9286774962876 37.7325293614723  C 36.8774893461978 38.1454374150378  36.6523572500647 38.516815320819  36.3099491517797 38.7531836385727  C 36.0516987201731 38.9548423708569  35.7347172320052 39.0667590804952  35.4071007514737 39.0719524816631  Z M 34.9239976600819 36.3297484588039  C 34.796136107223 36.3301687082622  34.6719573827188 36.3726051351236  34.570580029699 36.4505242316519  C 34.3845058902484 36.5845858812321  34.2899026752594 36.8120932079669  34.3260585879494 37.0385636502722  C 34.4705512988086 37.659350688099  34.8707769048985 38.1901080956361  35.4278900238492 38.4997525086622  C 35.6353670902411 38.6001216636807  35.8814353871088 38.576850088318  36.0664176753814 38.4393646222382  C 36.2497237973109 38.3038418835114  36.3421354448318 38.077395160454  36.3059892903748 37.8523151689691  C 36.2529222205592 37.541002772392  36.1183432038941 37.2493010459149  35.915942941997 37.0068847590334  C 35.7369910188934 36.7423340027388  35.4914871569776 36.5296095159884  35.2041578544751 36.3901363452279  C 35.1156024846018 36.3519305073826  35.0204287690657 36.3314160315956  34.9239976600819 36.3297484588039  Z M 21.9891103811367 38.2235521756738  C 15.418089187735 38.2238672558492  9.50758017462286 34.2272186877653  7.06043288484903 28.1288754893579  C 8.78678099776156 29.5031895516241  10.7736830884011 30.5134787502543  12.901228457004 31.098771542996  C 13.7640434545982 33.3066280669305  15.2671324936173 35.2061740772505  17.2174773882914 36.553480628178  C 15.8776021017223 35.0463035900034  14.8217603140473 33.3089273320121  14.1010664626738 31.4254601088962  C 15.1072380530493 31.6714871814545  16.1265612940707 31.860214020178  17.1541196058138 31.9907303244386  C 18.5668001619943 35.2110876119336  20.6764163254286 37.4909778157764  23.1008414705485 38.1839535616253  C 22.7325743598974 38.2087026954057  22.3623273185439 38.2235521756738  21.9891103811367 38.2235521756738  Z M 25.8133465328713 37.768168114116  C 23.1282844301692 36.7311259597075  20.9107835280673 34.7549330555184  19.5726049588264 32.206542771003  C 20.0745173918913 32.2303019394321  20.5793997210098 32.2431714889979  21.0922017729379 32.2431714889979  C 28.2268820591279 32.2431714889979  34.2953696620618 29.8603248886289  36.586149484768 26.5360212392566  C 33.3816316428925 29.1594294199703  28.2407415740449 30.8582099626513  22.4415245466409 30.8582099626513  C 21.2088198112857 30.8582840574582  19.9773913402308 30.7789223944471  18.7548935787247 30.6206182783603  C 18.3918073627699 29.8195623789293  18.0809680347046 28.9958381595563  17.8243261485848 28.1546145884894  C 19.5623981078056 28.3933011911089  21.3182376637652 28.4771176831198  23.0711425100122 28.4050758223462  C 30.0167394141205 28.1348152814651  35.8575349862755 25.5906043288485  38.0691175808847 22.2504612338568  C 38.0231740475048 29.6205875927657  32.9722672438414 36.0158189455462  25.8133465328713 37.768168114116  Z M 7.08617198398056 37.3989110381137  C 7.03552882925981 37.3987111652422  6.98494561543229 37.3954050728352  6.93470728524502 37.3890113846015  C 6.49850077687399 37.3110965851914  6.10992535381161 37.0660170221996  5.85168519101831 36.7059352922648  L 4.9775457858975 35.6288529901453  L 5.28443504477343 35.3863114790982  C 5.3376453571793 35.4686029019075  5.42802477233277 35.5193487210715  5.52598659046933 35.5219367322144  C 5.68156062130352 35.4723796529361  5.82399937930325 35.3884727361096  5.94276200332988 35.2764253251136  L 6.88421905233317 34.5200917967871  C 7.02311263728835 34.4305364990025  7.13852981202493 34.3090090032504  7.22080727174549 34.165684201053  C 7.23537199773864 34.0721602010378  7.20448557984015 33.9772947746353  7.13765018224362 33.9102731404401  L 7.43463978760743 33.672681456149  L 8.30778922737704 34.7418440354588  C 8.60722534747114 35.0635972720797  8.76766063737899 35.4904760922336  8.75426360077398 35.929802456914  C 8.69506254530359 36.3567176736008  8.45993237951217 36.7393875312095  8.10583629572965 36.9851055213068  C 7.82412785479475 37.2369656838901  7.46372616563387 37.38322578687  7.08617198398056 37.3989110381137  Z M 7.49304774332898 34.9764658236962  L 6.25460108896189 35.9664311749089  C 6.11897583584574 36.0753273635423  6.04670836520722 36.1584844530441  6.03878864239751 36.2159024434145  C 6.04242401871571 36.3027364424209  6.07970251273952 36.3847491292733  6.14273500427485 36.4445844395446  C 6.29638356875461 36.6464492051245  6.53978409077109 36.7594433591809  6.7931422400216 36.7465238716645  C 7.41064004041929 36.6563930351156  7.93144057002444 36.2400554024371  8.15533456329029 35.6575619853305  C 8.22096941370358 35.4142825556391  8.16080100038845 35.1542955845243  7.99496017639383 34.9645862394816  C 7.94761726391596 34.8909840827595  7.87396817838908 34.838225843608  7.78904738334159 34.8170814021509  L 7.78310759123431 34.8170814021509  C 7.67391204194262 34.8425758182899  7.57387832085511 34.8977313973827  7.4940377086802 34.9764658236962  Z M 37.8097466588669 37.2969446069388  L 37.5137470188543 37.0553930612429  C 37.5863886776025 36.9851534542787  37.6203565837135 36.8839881686872  37.6048238311659 36.7841425550106  C 37.5850245241417 36.7049453269136  37.475138370157 36.586149484768  37.2830850920218 36.427755028574  L 36.3525176618818 35.6585519506817  C 36.2393257195597 35.5409849462949  36.0978749556655 35.4544102618874  35.9416820411286 35.4071007514737  C 35.841624312057 35.4089145574947  35.748646428598 35.4590930977741  35.692210772623 35.5417360392386  L 35.3952211672592 35.2932547360842  L 36.1743238986636 34.3775367862125  L 38.191873284435 34.7735229266976  L 37.5424560140395 34.2379516716915  C 37.4289190722918 34.1237656741491  37.2907572826384 34.0370759237784  37.1385501507447 33.9845205417811  C 37.0380781348926 33.9853756428776  36.9438508832467 34.0334058762068  36.8841290554831 34.1142060027899  L 36.5950591729289 33.8746343877964  L 37.270215542456 33.0717724879629  L 37.5672051478198 33.3202537911173  C 37.4939740473872 33.3901199363923  37.4599001995035 33.4916007442198  37.4761283355083 33.5915042973496  C 37.4959276425325 33.667731629393  37.6048238311659 33.7894973675921  37.7978670746524 33.9459118930838  L 39.4689285874994 35.3318633847815  L 39.1382801601944 35.7278495252666  L 36.4158754443595 35.2021779237727  L 37.5384961526347 36.1357152499663  C 37.6519467627397 36.2502943529957  37.7910928963541 36.3361576988602  37.9443819466319 36.3861764838231  C 38.0447927926913 36.381640143674  38.1378454375964 36.3322059260681  38.1978130765423 36.2515411960581  L 38.4948026819061 36.4911128110516  L 37.8097466588669 37.2969446069388  Z M 4.6894658686946 35.3298834540791  L 3.84304549340773 34.1736039238627  L 4.1598344057958 33.946901858435  C 4.2144330709121 34.0362781668893  4.30722089817385 34.0954578047491  4.41128560500383 34.1072762453314  C 4.56809664774466 34.0725967855073  4.71395553332741 33.999837341417  4.83598074067408 33.8954236601719  L 5.82594609188678 33.1866084687036  C 6.02393916212933 33.0410835620753  6.13877514287 32.9321873734419  6.16451424200153 32.8539801106961  C 6.18621211934286 32.7514631142419  6.15833292181525 32.6447151342348  6.08927687530936 32.5659001934932  L 6.40507582234621 32.341178058768  L 7.24951626693066 33.4974575889844  L 6.93668721594744 33.7281195158169  C 6.8817851359811 33.6377976733419  6.78825825886503 33.5778820176895  6.68325608603699 33.5657651982181  C 6.52583306151458 33.5993021993461  6.38003056097223 33.6737400099275  6.26054088106916 33.7815776447824  L 5.27057552985646 34.4844530441435  C 5.07258245961391 34.6279980200693  4.9547765828196 34.7398641047563  4.93002744903928 34.8180713675022  C 4.90879325546474 34.9208850309344  4.93660109410764 35.0277256741414  5.00526481573145 35.1071412500563  L 4.6894658686946 35.3298834540791  Z M 3.66584169554066 33.9181928632498  L 3.225307114251 33.1301804436845  L 3.99352022679206 31.6927507537236  L 3.85690500832471 31.4472393466229  L 3.50744723934662 31.6383026594069  C 3.35727309020222 31.698243556954  3.2247704642333 31.79532131634  3.12235071772488 31.9204427845025  C 3.08858975910417 32.0175901265634  3.10330664029492 32.1250233592559  3.16194933177338 32.2095126670567  L 2.81942132025379 32.392656257031  L 2.13535526256581 31.1551995680151  L 2.47590334338298 30.9671061512847  C 2.54916077937272 31.0839220627278  2.62241821536246 31.1482698105566  2.70062547810827 31.1571794987175  C 2.86208200902926 31.1386519231518  3.01681555171959 31.081984156421  3.15204967826126 30.991855285065  L 4.22121225757099 30.4176753813617  C 4.37141242168755 30.3507845954705  4.50344689112333 30.2489585264969  4.60630877919272 30.1206857759978  C 4.63739410871992 30.0238175191976  4.62244078967902 29.9180501406156  4.56572019979301 29.8335958241462  L 4.90725824596139 29.6484723034694  L 5.68834090806822 31.0621428250011  C 5.85449640694848 31.3179686096054  5.93557265904504 31.6197524368536  5.919992800252 31.9244026459074  C 5.88391551139044 32.1723144406241  5.7242979467504 32.3848892346541  5.49628762993295 32.4886828960986  C 5.33312995202504 32.5828798974424  5.14375921833696 32.6214489826523  4.95675651352203 32.5985690500833  C 4.7615638669751 32.5572151313311  4.5832713933537 32.4582403925896  4.44494442694506 32.3144489942852  L 4.02816901408451 33.1875984340548  C 3.97957342572161 33.2738326091067  3.95114300877367 33.3699544949782  3.94501192458264 33.4687485937992  C 3.94272338662376 33.560496669137  3.96134281388562 33.6515625951997  3.99946001889934 33.7350492732754  L 3.66584169554066 33.9181928632498  Z M 4.73995410160645 30.9680961166359  L 4.73896413625523 30.9690860819871  L 4.22814201502947 31.2423165189218  C 4.23507177248796 31.2601358952437  4.24497142600009 31.2779552715655  4.25487107951222 31.2997345092922  C 4.26863714699233 31.3289048698004  4.28451898676846 31.3570289610706  4.30238941637042 31.3838815641453  C 4.39082466550635 31.5715918353312  4.52746592184759 31.732486914673  4.69837555685551 31.8501552445664  C 4.83047228158868 31.9236440173391  4.99183945153232 31.9206207448343  5.12109076182333 31.8422355217567  C 5.24366352861411 31.7820181364672  5.33010682979579 31.6668830161699  5.35373261935832 31.5323763668272  C 5.37265863990235 31.3717972531727  5.33483711500199 31.2096549751276  5.24681636142734 31.0740224092157  C 5.18147864824731 30.9572064977726  5.1181208657697 30.8918687845925  5.0488232911848 30.8760293389731  C 5.03862387338538 30.8749172555819  5.02833378309663 30.8749172555819  5.01813436529721 30.8760293389731  C 4.91994386526228 30.8867173459848  4.82513375932736 30.9180957796217  4.73995410160645 30.9680961166359  Z M 40.2054628088017 33.081672141475  C 39.9280370429038 33.0763873545383  39.6552166461854 33.0097880755377  39.406560770373 32.8866489672861  C 39.0029669313493 32.7220642954056  38.6804032183446 32.40519079123  38.5086621968231 32.0045898393556  C 38.3553799143832 31.6183366296663  38.3785237467144 31.184389773455  38.5720199793007 30.8166314179004  C 38.7375677746784 30.4331395999069  39.0599200600344 30.1392725836147  39.4570490032849 30.009809656662  C 39.8784079989733 29.8861551690714  40.3312238777202 29.9297701675725  40.7212347567835 30.1315753948612  C 41.122866302477 30.3012841429641  41.442494824772 30.6209126652592  41.6122035728749 31.0225442109526  C 41.7675181667211 31.408089477629  41.7458039899859 31.842373012333  41.5528056518022 32.2105026324079  C 41.385630852178 32.5935524091796  41.0606276834249 32.8853330317935  40.6618368357108 33.0103946361877  C 40.5143612846174 33.0578130809027  40.3603741079037 33.081863138871  40.2054628088017 33.081672141475  Z M 39.4580389686361 30.62853800117  L 39.4580389686361 30.633487827926  C 39.2298120694881 30.6393946635414  39.0247933447875 30.7745380925575  38.9293974710885 30.9819556315529  C 38.8273795549289 31.1863591455029  38.8516284101482 31.4311571124778  38.9917652882149 31.6115735949242  C 39.1863103650751 31.8649034492643  39.4460191494845 32.0606260114279  39.7431489897854 32.1778337758179  C 40.0245670429265 32.3284730684384  40.3408551217145 32.4019092854356  40.6598569050083 32.3906763263286  C 40.8886302445793 32.3804061446205  41.0927332932525 32.2438287774709  41.1894883679071 32.0362687305944  C 41.2919321862461 31.8305242237569  41.2664843799844 31.5841431904055  41.1241506547271 31.4036808711695  C 40.929707674972 31.1552772143553  40.6728072977812 30.9629435543042  40.3796967106151 30.8463303784368  C 40.1289238479585 30.7152902881811  39.8525490184742 30.6406217829048  39.5699050533231 30.6275480358188  C 39.5326254159802 30.6258811931818  39.4952832680221 30.6262116546682  39.4580389686361 30.62853800117  Z M 1.76906808261711 30.488952886649  L 1.61166359177429 30.1147459838906  L 1.80965666201683 29.916752913648  C 1.67839989526667 29.8430196679778  1.56003333714821 29.7483932952447  1.45920892768754 29.6365927192548  C 1.36332230926754 29.5196893581904  1.2864802649465 29.3883896911549  1.23151689690861 29.2475363362282  C 1.08927918331642 28.9079094605554  1.12295524326464 28.5200796712615  1.32160374386897 28.2100526481573  C 1.56861742580146 27.851947959387  1.92496441801621 27.5834721065781  2.3373081942132 27.4448094316699  C 2.72946637695509 27.2768003878181  3.17044520845547 27.2623131024884  3.57278495252667 27.4042208522702  C 3.94271296029457 27.5380436922765  4.23517995627246 27.8276149754229  4.37267695630653 28.1961931332403  C 4.40806557865023 28.2921570200628  4.43263671895492 28.3917697510277  4.44593439229627 28.4931827386041  C 4.45877848919434 28.6063354449849  4.45877848919434 28.7205781130405  4.44593439229627 28.8337308194213  L 4.59145929892454 28.8446204382847  L 4.69045583404581 29.0921117760878  L 3.78364757233497 29.7197498087567  L 3.53813616523422 29.465328713495  C 3.71773177466192 29.2928858888931  3.86404535416391 29.0888522734407  3.96976105836296 28.8634297799577  C 4.0385357400657 28.7034439861424  4.0417352591469 28.5228489091147  3.97867074652388 28.3605273815416  C 3.90230754687978 28.1589422240795  3.71724749064603 28.0188967761188  3.50249741259056 28.0001799937002  C 3.19187374158052 27.976572640239  2.88031554015846 28.0317337644252  2.59667911623093 28.1605543805967  C 2.30958834211148 28.252056181194  2.0503890802437 28.4148646531687  1.84331548395807 28.6337578184763  C 1.70075163751428 28.789660982328  1.66208184954945 29.0143324504037  1.74431894883679 29.2089276875309  C 1.79119547511757 29.3551877182079  1.89605474339864 29.4757937708042  2.03437879674212 29.5425460108896  C 2.16780676993039 29.607463207402  2.32366602852167 29.607463207402  2.45709400170994 29.5425460108896  C 2.5450353893549 29.5197193447476  2.61894294200599 29.4602327779797  2.66003689870855 29.3792017279395  C 2.6880091671578 29.2873800335318  2.68167673326738 29.1885237044646  2.64221752238671 29.1010214642488  L 2.98573549925753 28.9683661071863  L 3.45794897178599 30.1840435584755  L 3.1164109256176 30.316698915538  C 3.06887877507466 30.2282064059124  2.99022086599798 30.1604830043755  2.89564865229717 30.1266255681051  C 2.77727810958957 30.1156957429886  2.65822314433358 30.138340203239  2.55213067542636 30.1919632812852  L 1.76906808261711 30.488952886649  Z M 42.2893398731045 30.3840165594204  L 41.9161229356973 30.2533411330603  C 41.9569814109805 30.1575871013612  41.9526193741052 30.0485361794794  41.9042433514827 29.9563515276965  C 41.7841269547996 29.8482080114765  41.6387770841708 29.7719588990154  41.4815281465149 29.7345992890249  L 40.3272285470009 29.3455429059983  C 40.1841317374391 29.2754095297911  40.0247230484579 29.2453066013998  39.8659046933357 29.2584259550916  C 39.7725426371089 29.3024036793495  39.7010729055779 29.3824497786642  39.6679116230932 29.4801781937632  L 39.3045943391981 29.3594024209153  L 40.0817171399001 27.1250506232282  L 41.0716824911128 27.031003914863  L 41.1201907933222 27.3131440399586  C 40.890313022771 27.364294204203  40.6746159691566 27.4657191510436  40.4885928992485 27.6101336453224  C 40.3247328413906 27.7403624566539  40.2022844142939 27.9154361909017  40.1361652342168 28.1140260090897  C 40.0928819782517 28.2070042591542  40.0847919778127 28.3125260040099  40.1133960311389 28.4110156144535  C 40.1850477860343 28.50122385557  40.286465585285 28.562986944387  40.3994960176394 28.5852495162669  L 40.8133015344463 28.7287944921928  L 40.8578499752509 28.6070287539936  C 40.9079930067167 28.4971859167128  40.9129704340222 28.3720391730297  40.8717094901678 28.2585609503667  C 40.7835435992213 28.151345663025  40.6647231610116 28.0736288066379  40.5311614093507 28.0358187463439  L 40.6182783602574 27.7853575124871  L 42.0042298519552 28.2585609503667  L 41.915132970346 28.511002114926  C 41.7752190827421 28.4747418800518  41.6283717915773 28.4747418800518  41.4884579039734 28.511002114926  C 41.3818941610612 28.5525203856227  41.3009250626511 28.6415497562727  41.2696755613554 28.7515636952707  L 41.2251271205508 28.8753093641723  L 41.7201097961571 29.0455834045808  C 41.8687866437058 29.1109810457643  42.0314445643585 29.1382041287187  42.1933132340368 29.1247806326779  C 42.2919704302595 29.085510994997  42.3656715249784 29.0011232415438  42.3913063042794 28.8980785672501  L 42.7615533456329 29.0257840975566  L 42.2893398731045 30.3840165594204  Z M 13.4031408900688 29.3415830445934  L 13.4051208207713 29.3386131485398  C 13.1829448314377 28.5433455144331  13.0038308586344 27.7366716996494  12.868559600414 26.9221077262296  C 13.836371517362 27.2838024973729  14.8288843111226 27.5756012587386  15.8384556540521 27.7952571659992  C 16.0086134692949 28.616110048592  16.2244312318711 29.4268312914704  16.484903028394 30.223642172524  C 15.4389906343853 29.9992255350382  14.4094011516827 29.7045373792117  13.4031408900688 29.3415830445934  Z M 6.02096926607569 24.02447914323  L 6.02294919677811 24.0224992125276  C 5.95027251565802 23.400136171364  5.91358276944472 22.7740967179589  5.9130630427935 22.1475048373307  C 5.91296373829884 15.4020409548405  10.1219557319295 9.3731579827468  16.4542141025064 7.04855330063448  C 13.2546460873869 9.59078432254871  11.0381136660217 15.1197408090717  11.0381136660217 21.5317463888764  C 11.0371951872085 22.830021712977  11.1304969850917 24.1266520176015  11.3172838950637 25.411420600279  C 9.96896963220087 24.8789916500344  8.69730522601959 24.1699222298339  7.53561625343113 23.3027944021959  C 8.58554747268517 24.6113351964431  9.93442699468013 25.6485430846119  11.4687485937992 26.3271385501507  C 11.6215748893814 27.1623001387074  11.8198627690214 27.9884996372075  12.0627278045268 28.8020519281825  C 9.62941142218432 27.8268874728799  7.53084813176295 26.1674304124877  6.02096926607569 24.02447914323  Z M 17.4867479638213 26.9290374836881  L 17.4887278945237 26.9270575529856  C 17.0259497071622 25.027436816629  16.7932875592518 23.0790575151273  16.7957521486748 21.1238806641768  C 16.7957521486748 15.5078072267471  18.6400575979841 10.5253116140935  21.4822481213158 7.41385051523197  C 17.8748143814967 9.63533276335328  15.2969446069388 15.5226567070153  15.2969446069388 22.437564685236  C 15.2954189430649 23.8484964716345  15.4056497881728 25.2573327382392  15.6266030688926 26.6508572199973  C 14.6434455291203 26.4697769496741  13.6729321181158 26.2257432538236  12.7210547630833 25.9202627908023  C 12.5955670971889 24.8988005542141  12.5327517217718 23.8706120408073  12.5329613463529 22.8414705485308  C 12.5329613463529 14.4950726724565  16.6046888358907 7.54947576834811  21.9782207622733 6.06749763758268  L 21.9920802771903 6.06749763758268  C 29.7717326963712 6.06794486788319  36.4354576644678 11.6373765584538  37.8166764163254 19.2934347297845  C 35.5951941682041 23.5413760518382  29.2673356432525 26.7755928542501  21.6802411915583 27.0755523556675  C 21.2994345197918 27.0907318243861  20.9212677556286 27.0983215587455  20.5457408990685 27.0983215587455  C 19.5237299306056 27.0985322250164  18.5024949939573 27.0420172819204  17.4867479638213 26.9290374836881  Z M 1.6126535571255 26.1321153759618  L 0.490032848850293 25.8479953201638  L 0.19304324348648 23.4720784772533  L 0.581109661161863 23.4275300364487  C 0.585112755020885 23.5251719247193  0.634094819578783 23.6154597601357  0.713765018224363 23.6720514781983  C 0.873544517795539 23.7111286549822  1.04014302936903 23.7131603441477  1.20082797102102 23.6779912703055  L 2.40165594204203 23.5334563290285  C 2.5657063922044 23.5306567470679  2.72679459150686 23.489282514826  2.87188948386807 23.4126805561805  C 2.93630523839886 23.3389571328858  2.96168124268705 23.2389241884454  2.94019709310175 23.1434099806507  L 3.32727354542591 23.0978715744949  L 3.61139360122396 25.411420600279  L 2.71250506232282 25.8994735184269  L 2.52540161094362 25.6608918687846  C 2.72483587883904 25.5143599314697  2.89001721875845 25.3262085892711  3.00949466768663 25.1094811681591  C 3.10597058256634 24.9238131860387  3.1439366297613 24.7132741970485  3.11839085632003 24.5056023039194  C 3.11717653380554 24.4157452576798  3.08177742801026 24.3297254305973  3.01939432119876 24.2650407235747  C 2.91341983466562 24.2223814286534  2.79672638472943 24.2140709158983  2.68577599784007 24.2412815551456  L 2.23534176303829 24.2937497187598  L 2.25316113936013 24.429374971876  C 2.25227177024343 24.5361256901522  2.29954912140597 24.6375901591856  2.38185663501777 24.7055753048643  C 2.51083472763385 24.7574385430999  2.65158762977629 24.7728494447944  2.7887323943662 24.7501237456689  L 2.82635107771228 25.0471133510327  L 1.40575079872205 25.2154074607389  L 1.3711020114296 24.9184178553751  C 1.51254866667395 24.8936240086915  1.64597416484559 24.8352291341736  1.7601583944562 24.7481438149665  C 1.83494291119198 24.679275204222  1.8693039923736 24.5769389407029  1.85123520676777 24.4768933087342  L 1.83737569185079 24.3382981595644  L 1.10381136660217 24.4283850065248  C 0.989475245018189 24.4272356961352  0.878134962772455 24.4649308387137  0.788012419565325 24.5353012644558  C 0.737964913483646 24.6115200720905  0.721829670736989 24.7051044800211  0.743463978760745 24.7936822211223  C 0.77852425315441 25.0201805013374  0.887048033557866 25.2288800790363  1.05233316833911 25.3876614318499  C 1.24653777821983 25.5886855073957  1.48333521977888 25.7436186905872  1.74530891418801 25.8410655627053  L 1.6126535571255 26.1321153759618  Z M 41.9794807181749 26.0390586329478  L 41.9814606488773 26.0370787022454  C 41.5528847098398 25.9992771887521  41.1550609516084 25.7987711805963  40.8697295594654 25.476758313459  C 40.6067591525818 25.1773728902937  40.49098046024 24.7763213071036  40.5539306124286 24.382846600369  C 40.5690193696483 24.2708877167525  40.6024669094877 24.1621832122745  40.6529271475498 24.0611078612249  C 40.7065016784725 23.945604696421  40.7747088082231 23.8374714419383  40.8558700445484 23.7393691220807  L 40.6697565585205 23.6621518246861  L 40.6974755883544 23.4433694820681  L 41.9012734554291 23.2325068622598  L 41.9626513072042 23.540386086487  C 41.7148372809042 23.5953696271988  41.4826714605706 23.7056991569783  41.2835350762723 23.8631147909823  C 41.1249583239527 23.9797916790964  41.0183559361687 24.153908912477  40.9865454709085 24.3481978130765  C 40.9553246737929 24.5772908290837  41.051778018066 24.8051333746107  41.2379966701165 24.9421770238042  C 41.4868535989944 25.1271016302322  41.782398237079 25.2388737323384  42.0913468028619 25.2649057282995  C 42.399109614036 25.320436062344  42.7163562420851 25.286064813368  43.0050848220312 25.1659091931782  C 43.224516247535 25.0635938410471  43.3746379831174 24.8541740199096  43.4010709625163 24.6135085272016  C 43.4231353401078 24.425488330881  43.3805406250639 24.2355577982263  43.2802951896684 24.0749673761418  C 43.1707737459545 23.8790575959794  43.0168384767893 23.7115597480331  42.8308509202178 23.5859244926428  L 43.0446834360797 23.2661656842011  C 43.3202005742128 23.4258009225882  43.548404027018 23.65571248507  43.7059802906898 23.9324123655672  C 43.8411676344485 24.1922279804198  43.8880807734064 24.4889970224204  43.8396256131035 24.7778427755029  C 43.803180788373 25.1865073895244  43.5851268571143 25.5571990726641  43.2456464023759 25.7876074337398  C 42.9703957808021 25.9678228747081  42.6469646148544 26.0603304013613  42.3180488682896 26.0529181478648  C 42.2050076418383 26.0562100465031  42.0918746641369 26.0515788719773  41.9794807181749 26.0390586329478  Z M 40.6806461773838 23.1374701885434  L 40.6232281870135 21.7406290779823  L 40.9984250551231 21.7287494937677  C 40.9934816795403 21.8303830758171  41.0385932951768 21.9280016539157  41.119200827971 21.9901003464879  C 41.2736032148805 22.041974704794  41.4376759152734 22.0585511219471  41.5993340233092 22.0386086486973  L 41.915132970346 22.0267290644827  L 41.8725644602439 20.957566485173  L 41.5537956171534 20.9704360347388  C 41.3900588990152 20.9605508421426  41.226431830595 20.9915073145465  41.0776222832201 21.0605228816991  C 41.003047883553 21.1277510180676  40.9660753856577 21.227207037406  40.9786257480988 21.3268235611754  L 40.6063987760428 21.3476128335508  L 40.5479908203213 19.9438419655312  L 40.9370472033479 19.928992485263  C 40.9319177178646 20.0288577387955  40.9740937779764 20.1253125545295  41.0508932187374 20.189353372632  C 41.2054042739291 20.2453743282221  41.3714319422803 20.2620451391836  41.5339963101292 20.2378616748414  L 42.7467038653647 20.1883634072807  C 42.9100628775291 20.1970536318785  43.0731765549383 20.1672116285271  43.222877199298 20.101246456374  C 43.2928011599744 20.0297651243462  43.3260144155828 19.930125357521  43.3129640462584 19.830985915493  L 43.7000404985826 19.817126400576  L 43.7584484543041 21.2159474418395  L 43.3872114475993 21.2298069567565  C 43.3926463647953 21.1290803990855  43.3482347085164 21.0321149495433  43.2684156054538 20.9704360347388  C 43.1148128478287 20.9149164369269  42.9497881647095 20.8985840971543  42.7882824101157 20.9229176978806  L 42.2586509472169 20.9417270395536  L 42.3041893533726 22.0079197228097  L 42.8338208162714 21.986140485083  C 42.9973801420165 21.9948530720306  43.1606500697606 21.964303605301  43.3099941502047 21.8970436034739  C 43.383518314171 21.8294108436138  43.4181136871291 21.7293446573157  43.4020609278675 21.6307429239977  L 43.7772577959771 21.6149034783783  L 43.8376456824011 23.0127345542906  L 43.4475993340233 23.0275840345588  C 43.4511042750507 22.9280946808433  43.408777866823 22.8324953795014  43.3327633532826 22.7682131125411  C 43.1797439874044 22.7147346604576  43.0163382414663 22.6977838569371  42.8556000539981 22.7187148449804  L 41.6428924987626 22.7682131125411  C 41.4796889071248 22.7584862359375  41.3165768654072 22.788729927006  41.1677091301805 22.856320028799  C 41.094091638957 22.9246107795879  41.0573393784687 23.0238418829064  41.0687125950592 23.1236106736264  L 40.6806461773838 23.1374701885434  Z M 2.30166944156955 23.0384736534221  L 2.19871304504342 22.7622733204338  C 2.39404840141379 22.6932326435141  2.57253369944372 22.5835772146677  2.72240471583495 22.4405345812897  C 2.83082414558608 22.3154301746591  2.89087506053373 22.1556455764066  2.89168879089232 21.9901003464879  L 2.89168879089232 21.9435719749809  L 1.13351032713855 21.8663546775863  C 0.972875978346655 21.8435714436191  0.809110229633154 21.8602198288618  0.656347027854027 21.9148629797957  C 0.578875004482788 21.979578656161  0.535439051067685 22.0763057793123  0.538541151059716 22.1772037978671  L 0.150474733384334 22.1554245601404  L 0.215812446564373 20.7585834495793  L 0.603878864239752 20.7724429644962  C 0.588467304673911 20.8717702364359  0.623328284957919 20.9722737008717  0.696935607253748 21.0407235746749  C 0.842139579070034 21.1122590245093  1.00371086817304 21.1440267409714  1.16518921837736 21.1327903523377  L 2.92435764748234 21.2149574764883  L 2.92435764748234 21.1694190703325  C 2.9376656349181 21.0047247767585  2.8939779086762 20.840458926089  2.80061197858075 20.7041353552626  C 2.66321708261278 20.5478312650215  2.49460143090828 20.4220439888499  2.3056293029744 20.3348782792602  L 2.43531476398326 20.0725374611889  L 3.38370157044504 20.4378346757863  L 3.28470503532376 22.7622733204338  L 2.30166944156955 23.0384736534221  Z M 0.581109661161863 20.1913333033344  L 0.196013139540119 20.1210457633983  L 0.454394096206633 18.7756828511002  L 0.826621068262613 18.8439904603339  L 0.826621068262613 18.8776492822751  C 0.805746791489325 18.9484093823534  0.805746791489325 19.0236915941124  0.826621068262613 19.0944516941907  C 0.850028755417133 19.1433466312915  0.898220448014376 19.1756009137384  0.952346667866626 19.1785987490438  C 0.97907573234937 19.1845385411511  1.00580479683211 19.1835485757998  1.02758403455879 19.1894883679071  C 1.0488279511896 19.1905461546588  1.07011992888234 19.1888827189016  1.09094181703641 19.1845385411511  L 1.54731584394546 19.1221707240247  L 1.70967016154435 18.2727804526842  L 1.30774422895199 18.0747873824416  C 1.29033093785535 18.0703710671828  1.27314997839001 18.0650846181166  1.25626603068893 18.0589479368222  C 1.24375015059326 18.0521106580607  1.22990473348557 18.0480583408585  1.21567745128921 18.0470683526077  C 1.15271550883523 18.0283752941535  1.08463867878863 18.0400874369572  1.03154389596365 18.0787472438465  C 0.978723488453268 18.1462764886575  0.944583720772778 18.2265049427066  0.932547360842372 18.3113891013815  L 0.55834045808397 18.2401115960941  L 0.779102731404402 17.0868019619313  L 1.16320928767493 17.1570895018674  C 1.15726949556766 17.35508257211  1.28695495657652 17.5382261620843  1.55325563605274 17.6916707915223  C 1.56907478190247 17.7037305255561  1.58637531342277 17.7137116014332  1.6047338343158 17.7213697520587  L 3.64010259640913 18.9192278270261  L 3.51734689285875 19.5528056518022  L 1.075102371417 19.8943436979706  L 1.05431309904154 19.8943436979706  C 0.791972280970169 19.9329523466679  0.632587859424925 20.0319488817891  0.581109661161863 20.1913333033344  Z M 2.05813796517122 18.4876029338973  L 1.95617153399631 19.0528731494398  L 2.89663861764838 18.9538766143185  L 2.05813796517122 18.4876029338973  Z M 40.5380911668092 19.8012869549566  C 40.5380911668092 19.8012869549566  40.4737434189803 19.4963776267831  40.3985060522882 19.0271340503082  C 40.3212887548936 18.5539306124286  40.2807001754939 18.3876164334248  40.2807001754939 18.3876164334248  L 40.6638167664132 18.3202987895424  C 40.6753679567331 18.4241952162151  40.7332090223634 18.5173229696827  40.821221257256 18.5737299194528  C 40.9789394791955 18.609007995317  41.1429798493733 18.604243337262  41.2983845565405 18.5598704045358  L 42.4982225622103 18.3460378886739  C 42.6582815983271 18.3351365355079  42.8127860242097 18.282952921468  42.9466768663097 18.1945731899384  C 43.009644468501 18.111617036074  43.0318314806466 18.0046829119623  43.0070647527337 17.9035233766818  L 43.3882014129506 17.8371956981506  L 43.6446024389146 19.2409665661702  L 43.2604958826441 19.3082842100526  C 43.2488689525143 19.2054557590207  43.1913770032045 19.1133958655056  43.1040813571525 19.0578229761958  C 42.9465795530754 19.0213875483322  42.7824116477001 19.0254747161009  42.626918057868 19.0697025604104  L 41.4300499482518 19.2835350762723  C 41.2679292134795 19.2955954474365  41.111550404162 19.3487438009301  40.9756558520452 19.4379696710615  C 40.9118942696852 19.5228824982533  40.8907210236745 19.6323992879639  40.9182378616748 19.7349592764253  L 40.5380911668092 19.8012869549566  Z M 40.2678306259281 18.2262520811772  L 39.9411420600279 17.0788822391216  L 41.4092606758763 15.6483823066193  L 40.5955091571795 15.8770643027494  C 40.4379319184875 15.9074854363001  40.2889212260892 15.9720229470668  40.1589344372947 16.066147684831  C 40.10271443444 16.1492046360351  40.0901724277952 16.2543361623224  40.1252756153535 16.3482878099267  L 39.759978400756 16.4472843450479  L 39.4748683796067 15.4444494442695  L 39.8490752823651 15.3345632902848  C 39.8658239029256 15.4349472329862  39.9315522794418 15.5203569877813  40.0242991495298 15.5622553210638  C 40.1856410366025 15.5788800456408  40.3486151367786 15.5564711068666  40.4994825181119 15.4969176078837  L 42.6041488547901 14.9108581199658  L 42.7467038653647 15.4058407955722  L 40.7756828511002 17.3402330918418  L 42.1853935112271 16.9442469513567  C 42.3459046464039 16.9183980613189  42.497369891819 16.8527063930827  42.6259280925167 16.7531836385727  C 42.6787200232479 16.6691279927452  42.6900316392295 16.5654989947199  42.6566170184043 16.4720334788282  L 43.0189443369482 16.3680871169509  L 43.3090041848535 17.3818116365927  L 42.9357872474463 17.480808171714  C 42.9146959281412 17.3819031420809  42.848329465304 17.2986700643791  42.7566035188768 17.2560860369887  C 42.5950988972135 17.2390208299529  42.4318534901565 17.260741632555  42.2804301849435 17.3194438194663  L 41.1162309319174 17.6451424200153  C 40.9557792718347 17.6728098417593  40.8043414580558 17.7386818952864  40.6747063852765 17.8371956981506  C 40.6208810478734 17.9224950516744  40.6106007016659 18.0282357555225  40.6469873554425 18.1223057192998  L 40.2678306259281 18.2262520811772  Z M 2.70953516626918 17.8540251091212  L 2.68478603248885 17.5580254691086  C 2.89328139422692 17.5427010512705  3.09595371255549 17.4822371429692  3.27876524321648 17.3808216712415  C 3.41536622264896 17.2887333419944  3.51551047963065 17.1518228368201  3.56189533366332 16.9937452189173  L 3.57377491787787 16.950186743464  L 1.89083382081627 16.4175853845115  C 1.7430670084697 16.3552747202189  1.58237456458335 16.3297949458183  1.42258020969266 16.3433379831706  C 1.34239301624443 16.3631372901948  1.28299509517167 16.4363947261846  1.23943661971831 16.5601403950862  L 0.86720964766233 16.4453044143455  L 1.29982450614228 15.1088511902083  L 1.67007154749584 15.2266570670027  C 1.63118601598234 15.3190307973798  1.63815742039272 15.4243356955786  1.68888088916888 15.5107771228007  C 1.81307932106836 15.6149348865019  1.96095370202115 15.6870024008972  2.1195158169464 15.7206497772578  L 3.79750708725194 16.2552310669127  L 3.81037663681771 16.2126625568105  C 3.86704512881041 16.0569538730523  3.86704512881041 15.8862581145281  3.81037663681771 15.7305494307699  C 3.72271316292123 15.542568230948  3.59298257666329 15.3772718181703  3.43121990730324 15.2474463393781  L 3.62921297754579 15.0286639967601  L 4.44989425370112 15.628582999595  L 3.72919947801827 17.839175628853  L 2.70953516626918 17.8540251091212  Z M 4.68253611123609 15.0474733384332  L 3.71929982450614 14.8544300949467  L 3.74305899293524 14.5416010439635  C 3.95523075924934 14.5462529381565  4.16561348513853 14.5018726851911  4.35782747603834 14.4119155829546  C 4.51886448681258 14.3358395931104  4.65037146623442 14.2088553404941  4.73203437879674 14.050578229762  C 4.7843601907825 13.9541455927964  4.8031644669987 13.8430610721859  4.78549250776222 13.7347792827251  C 4.76922309675331 13.6439118194559  4.70923555640223 13.5668907799928  4.62511812086577 13.5288664896729  C 4.47761328353507 13.459568915088  4.24299149529766 13.6100436484723  3.93214237501687 13.9862304819331  C 3.88462403815866 14.036718714845  3.85096521621743 14.0773072942447  3.82423615173468 14.1010664626738  C 3.66395744331464 14.3162806873343  3.44797185781573 14.4836609588224  3.19956801511947 14.5851595194168  C 2.98940358631623 14.6375386914026  2.76724142049296 14.609282772061  2.57687980920667 14.5059622913198  C 2.30617661285967 14.3860033524935  2.09303787174952 14.1650495242093  1.98290059847904 13.8902038428655  C 1.88427168580111 13.6149548002331  1.90879466062941 13.310581406776  2.05021824236151 13.054673086442  C 2.11089658235907 12.9305084907864  2.18925922694687 12.8157989174323  2.2828600998965 12.7141250056248  C 2.37667915364324 12.6117316391853  2.48390581382537 12.522487089717  2.60162894298699 12.4488142914998  L 2.44224452144174 12.3191288304909  L 2.5560905368312 12.0874769383072  L 3.76186833460828 12.2953696620618  L 3.73216937407189 12.6438374656887  C 3.46144805390777 12.6275361690045  3.19057753863518 12.6732455684567  2.94019709310173 12.7774827881024  C 2.73894256741865 12.856471847088  2.57395188311337 13.0070082193067  2.47689330873418 13.2001979930702  C 2.41477182346308 13.3148891281795  2.39681108516587 13.4483620657215  2.42640507582234 13.5753948611799  C 2.44768246440175 13.6882930979411  2.52110421640371 13.7844755930637  2.62439814606488 13.8347657831976  C 2.77289294874678 13.9040633577825  2.992665256716 13.7842775502857  3.27678531251405 13.464518741844  C 3.31341403050892 13.4209602663907  3.3431129910453 13.3902713405031  3.36093236736713 13.3655222067228  C 3.50447734329297 13.2100976465824  3.62228322008728 13.0913018044368  3.71237006704764 13.0041848535301  C 3.77796397420464 12.9360969711483  3.85297320792329 12.8777564560338  3.9351122710705 12.8309409170679  C 4.05163073478978 12.7744479255272  4.17985157481775 12.7462936140925  4.30931917382891 12.7487737929173  C 4.4467582299133 12.7539073912667  4.58161974795743 12.7876227707777  4.70530531431399 12.8477703280385  C 4.94999106385137 12.9560113876818  5.1386313013588 13.1611486801804  5.22602708905187 13.4140305089322  C 5.31112409674497 13.6685260934744  5.2885955469089 13.9467358041484  5.16365927192548 14.1842235521757  C 5.11167162042397 14.2891622092058  5.04500466882362 14.3861626237843  4.96566620168293 14.4723034693786  C 4.88078711304677 14.5560827243755  4.78446261107689 14.6274095182217  4.67956621518246 14.6841560545381  L 4.79935202267919 14.8069117580885  L 4.68253611123609 15.0474733384332  Z M 42.1685641002565 14.7425640102596  C 42.0141833496988 14.5614017669595  41.772187355841 14.4806094036558  41.5399361022364 14.5326913558025  L 41.4815281465149 14.5326913558025  L 39.1165009224677 14.7089051883184  L 38.8531701390451 14.1228457004005  L 40.6588669396571 12.4527741529046  L 40.6727264545741 12.4448544300949  C 40.8707195248166 12.2607208747694  40.9360572379967 12.091436799712  40.8875489357873 11.933042343518  L 41.2469063582775 11.7746478873239  L 41.8151464698736 13.022004229852  L 41.4637087701931 13.1754488592899  L 41.4518291859785 13.1447599334023  C 41.4248037331176 13.0786095832154  41.3827806729924 13.0196417407816  41.3290734824281 12.9725059622913  C 41.2805200151293 12.9451636780722  41.2212124242353 12.9451636780722  41.1726589569365 12.9725059622913  C 41.1489879548978 12.9823014151879  41.1264225462614 12.9945796522401  41.105341313054 13.0091346802862  C 41.086531971381 13.0200242991495  41.0687125950592 13.0348737794177  41.0558430454934 13.0437834675786  L 40.7192548260811 13.3546325878594  L 41.0756423525177 14.1466048688296  L 41.5250866219682 14.0763173288935  L 41.570625028124 14.0614678486253  C 41.5853180756213 14.0585683255911  41.5996098544872 14.053915188286  41.6131935382262 14.0476083337083  C 41.6747504468874 14.0272737990685  41.7224531733577 13.978091918289  41.7408990685326 13.915942941997  C 41.7491664681631 13.8307716926763  41.7312047595162 13.7451081591299  41.6894208702695 13.6704315348963  L 42.0368987085452 13.5140170094047  L 42.5229716959906 14.5851595194168  L 42.1685641002565 14.7425640102596  Z M 40.4232551860685 13.6437024704135  L 39.7065202717905 14.2634207802727  L 40.6608468703595 14.1644242451514  L 40.4232551860685 13.6437024704135  Z M 36.3802366917158 10.8292309769158  C 36.1656435004454 10.7186632043948  35.9712015592014 10.5727480815335  35.8050668226612 10.3976060837871  C 35.8456554020609 10.3510777122801  35.8892138775143 10.2986095486658  35.9327723529677 10.2382216622418  C 35.9827595341721 10.1704110996461  36.0240029560851 10.0965720700921  36.055528056518 10.0184493542726  L 36.1228457004005 9.8551050713225  C 36.1683841065563 9.90361337353193  36.2218422355218 9.96301129460469  36.26936057238 10.0233991810287  C 36.3040650421228 10.0662853092867  36.3417790863797 10.1066459531407  36.3822166224182 10.1441749538766  C 36.446564370247 10.2085227017054  36.493092741754 10.2431714889979  36.5287314943977 10.2431714889979  C 36.5836697604321 10.2286220542573  36.6329821966967 10.1979310974213  36.6702965396211 10.15506457274  L 38.6729964451244 8.29986950456734  L 36.9286774962876 6.45358412455565  L 36.5178418755344 6.03977860774873  L 36.9078882239122 5.68042118525852  L 37.2969446069388 6.11204607838726  L 39.0788822391216 7.99991000314989  L 39.4322998695046 8.35530756423525  L 39.0798722044728 8.65823696170634  L 36.8573999910003 10.7054853080142  C 36.7943399775398 10.7739192556836  36.7182836170184 10.8291105969469  36.6336678216262 10.8678396256131  C 36.6159171441318 10.8742846229606  36.5971060059968 10.8773078415895  36.5782297619583 10.876749313774  C 36.5099298477394 10.8721102396328  36.4429459280047 10.8556991792978  36.3802366917158 10.8282410115646  Z M 7.53462628807991 10.75102371417  L 7.17031903883365 10.3817666381677  L 5.02704405345814 8.35332763353283  L 4.67362642307519 8.03851865184718  L 4.99041533546326 7.72568960086397  L 7.0030148944787 5.64676236331728  L 7.29406470773523 5.31908383206588  L 7.63164289249877 5.65666201682941  L 9.79669711560096 7.70589029383972  L 10.1808036718715 8.0474283400081  L 9.79669711560096 8.44341448049318  L 9.72937947171849 8.37906673266435  L 7.8603248886289 10.3154389596364  L 7.90883319083832 10.3550375736849  L 7.53462628807991 10.75102371417  Z M 7.27723529676462 6.05363812266571  L 5.40719074832382 7.98605048823291  L 7.51779687710931 9.98677046303379  L 9.39081132160375 8.05435809746659  L 7.27723529676462 6.05363812266571  Z M 36.1941232056878 9.75907843225487  L 35.8664446744364 9.39477118300859  L 34.9447869324574 8.41866534671286  L 34.6279980200693 8.10682626108086  L 34.9576564820231 7.82864599739009  L 35.5229266975656 7.30396436124736  L 35.8070467533636 7.0188543400981  L 36.1040363587274 7.35148269810557  L 37.0247041353553 8.32956846510372  L 37.3711920082797 8.6711065112721  L 37.0633127840526 8.92948746793862  L 36.4980425685101 9.45416910408136  L 36.1941232056878 9.75907843225487  Z M 35.8119965801197 7.75439859604913  L 35.37146199883 8.16127435539756  L 36.1852135175269 9.01957431489897  L 36.6237681681141 8.60972865949691  L 35.8119965801197 7.75439859604913  Z M 7.38811141610044 9.76402825901093  L 7.04162354317599 9.43535976240831  L 7.32475363362282 9.15915942941997  L 7.75538856140035 8.71664491742789  L 7.32376366827161 8.30778922737704  L 7.00796472123476 8.63447779327723  L 6.75057372991945 8.91661791837285  L 6.40111596094137 8.59190928317509  L 6.67434639787607 8.32065877694281  L 6.99014534491293 7.99001034963776  L 6.67929622463214 7.69302074427395  L 6.28331008414705 8.10583629572965  L 6.02690905818296 8.39193628223012  L 5.67547135850245 8.05633802816901  L 5.94870179543716 7.79300724474643  L 7.09904153354633 6.60504882329118  L 7.38019169329073 6.29716959906403  L 7.7355892543761 6.63474778382756  L 7.45443909463169 6.90104846330378  L 7.04756333528326 7.31683391081312  L 7.36435224767133 7.61382351617693  L 7.74647887323944 7.21783737569185  L 7.93754218602349 7.00598479053233  L 8.29293974710885 7.33960311389101  L 8.04940827071053 7.56630517931872  C 8.10116616642242 7.56953348264991  8.15307493513903 7.56953348264991  8.20483283085092 7.56630517931872  L 8.41965531206408 7.55541556045538  L 8.57210997615084 7.55541556045538  C 8.58002969896054 7.64847230346937  8.58200962966296 7.75340863069792  8.59190928317509 7.8603248886289  L 8.81465148719795 7.60986365477208  L 9.15717949871755 7.93457228996985  L 8.86018989335373 8.22364217252396  L 7.65243216487423 9.47594834180803  L 7.38811141610044 9.76402825901093  Z M 7.90487332943347 7.7049003284885  L 7.69302074427395 7.92665256716015  L 8.12266570670027 8.33352832650857  L 8.42460513882014 8.02267920622778  C 8.37295901486363 8.01283623033427  8.3206978913134 8.00655166484405  8.26819061332854 8.00386986455474  C 8.13774749286813 7.99909159739451  8.00714540463587 8.00671557716441  7.87814426495073 8.02663906763263  C 7.90136524198627 7.92106517383432  7.91035470080605 7.81285872507764  7.90487332943347 7.7049003284885  Z M 37.7800476983306 8.70575529856455  L 37.4167304144355 8.28798992035279  L 36.1198758043468 6.91688790892319  L 35.7585384511542 6.5595104171354  L 36.1426450074247 6.20708275210368  L 36.4772532961346 6.58227962021329  L 37.7711380101697 7.95239166629168  L 38.1671241506547 8.34837780677676  L 37.7800476983306 8.70575529856455  Z M 31.7610583629573 6.56446024389146  C 31.7610583629573 6.51100211492598  31.7610583629573 6.41200557980471  31.7491787787427 6.26747063852765  C 31.4947576834811 6.14966476173334  31.1304504342348 5.98731044413446  30.6503172388966 5.77941772037979  C 30.1701840435585 5.57152499662512  29.8791342303019 5.45074922377717  29.7682581109661 5.40323088691896  C 29.6573819916303 5.35571255006075  29.525716599919 5.32205372811951  29.372271970481 5.28344507942222  C 29.41341682925 5.12935744018  29.4350354394328 4.97071010083822  29.4366197183099 4.81123160689376  L 29.4286999955001 4.65778697745578  C 29.5661433679774 4.65519735189169  29.7033199771071 4.64461987841663  29.8395356162534 4.62610808621698  C 29.9626895741822 4.5982467583603  30.0840222965933 4.56287182294346  30.2028529001485 4.52018179363722  C 30.3523376681816 4.4637537686181  30.5097421590244 4.39940602078927  30.6711065112721 4.32911848085317  C 30.8409262402425 4.24996100287982  31.0035600576737 4.15622297776162  31.1571794987175 4.04895828645997  C 31.3225037123701 3.94006209782658  31.4215002474913 3.8638347657832  31.4660486882959 3.82819601313954  L 31.5541556045538 3.7470188543401  C 31.6557154434449 3.94890362629839  31.7718487898926 4.14312093218096  31.9016334428295 4.32812851550195  L 31.7036403725869 4.42712505062323  L 31.350222742204 4.59937902173424  C 31.1792887248946 4.67659631912883  31.0083547075852 4.74919377821776  30.8374206902758 4.81717139900103  C 30.6701165459209 4.88052918147865  30.4632137875174 4.94982675606354  30.2167124150655 5.02308419205328  C 30.7255546055888 5.27750528731494  31.2294469693561 5.51806686765963  31.727399541016 5.76555820546281  C 31.7046303379382 5.52598659046933  31.6878009269675 5.36957206497772  31.6709715159969 5.29928452504162  L 31.6125635602754 5.01318453854115  C 31.7634994745602 5.03646888570869  31.9164702828716 5.04376901105109  32.0689375871844 5.03496377626783  L 32.1867434639787 5.01813436529721  C 32.2857399991 5.68240111596094  32.3490977815776 6.22589209377672  32.3956261530846 6.64266750663727  C 32.0788372406966 6.68820591279305  31.9194528191513 6.70899518516852  31.9105431309904 6.71295504657337  L 31.7452189173379 6.75156369527066  C 31.7541286054988 6.67929622463214  31.7570985015524 6.61791837285695  31.7610583629573 6.56545020924268  Z M 11.6449624263151 6.51001214957477  L 11.4311299104531 6.40111596094137  C 11.780045969488 6.13518926820724  12.0882134584562 5.8196844580732  12.3458578949737 5.46460873869415  C 12.5200376311014 5.22024848450479  12.6755718104698 4.96312070286806  12.8111416100436 4.69540566080187  C 12.7855593809435 4.67132863062317  12.7577110040214 4.64977929133826  12.7279845205418 4.63105791297305  C 12.5784997525087 4.87161949331774  12.4399046033389 5.08149214777483  12.31021914233 5.2586959456419  C 12.1274043526754 5.50568289224656  11.922997125344 5.73593090358415  11.6994105206318 5.94672186473474  C 11.6501285549527 5.90349705321474  11.5978608345435 5.8638000503723  11.5429959951402 5.82792602258921  C 11.4471586357953 5.76522607612827  11.3480189680134 5.70772506881474  11.2460063897763 5.6556720514782  C 11.3736635754861 5.56456188880603  11.4953488441397 5.46536194153414  11.6103136390226 5.35868244611439  C 11.7331796781602 5.23808295891513  11.8482480959733 5.10978828618088  11.9548215812446 4.97457588984386  C 12.0823526636181 4.80923550705852  12.1987646516765 4.63560967259648  12.3032893848715 4.45484408045719  L 12.2429014984475 4.43900463483778  C 12.0825271115511 4.61422850200243  11.9627413040543 4.74292399766009  11.8746343877964 4.82410115645953  C 11.7865274715385 4.90527831525897  11.6419925302614 5.03694370697026  11.4430094946677 5.22008729694461  C 11.398487571905 5.17934113207096  11.3515436234218 5.14132314562326  11.3024344147955 5.10624128155515  C 11.2549160779373 5.07258245961392  11.1489897853575 5.00724474643388  10.9777257795977 4.91814786482473  C 11.0994915177969 4.84192053278136  11.2588759393421 4.72708455204068  11.4608288709895 4.5805696800612  C 11.7225969388299 4.37304362296144  11.9506773772996 4.1262625921722  12.1369752058678 3.84898528551501  L 11.5558655447059 4.14597489087882  L 11.221257255996 4.33208837690681  L 11.0014849480268 3.91531296404626  L 11.3469828556 3.74899878504253  L 12.9893353732619 2.89861854835081  L 13.3675021374252 2.69369572064978  L 13.5843045493408 3.11542096026639  L 13.2021779237727 3.30054448094316  L 12.6200782972596 3.59753408630698  C 12.6903658371957 3.61040363587274  12.7656032038879 3.62030328938487  12.8448004319849 3.63218287359942  C 12.7458038968636 3.77968771093011  12.6468073617423 3.92917247896324  12.5537506187283 4.07172748953786  C 12.6619642294221 4.080599572921  12.7685050821117 4.10390538444687  12.8705395311164 4.14102506412276  L 13.0012149574765 4.20537281195158  C 13.1263630464704 3.99143569937456  13.2387551489127 3.77028770956886  13.3378031768888 3.54308599199028  L 13.4367997120101 3.26292579759709  C 13.4933503451003 3.28718536846953  13.5511845680083 3.30833616999018  13.6100436484723 3.3262835800747  C 13.7447505450398 3.35572306669564  13.8808867768494 3.37819215349916  14.0179093731719 3.39360122395716  C 13.897133600324 3.60446384376547  13.7921972730954 3.78958736444224  13.7031003914863 3.95392161274355  C 13.7684381046663 4.02222922197723  13.8713945011925 4.11825586104486  14.0109796157135 4.23903163389281  C 14.1763620899648 4.37163970733875  14.3724572795798 4.46049534013304  14.581199658012 4.49741259055933  C 14.8166017510878 4.55432557695272  15.059927230322 4.57106047923842  15.3009044683436 4.54691085811997  C 15.2721954731584 4.65382711605094  15.2504162354318 4.73896413625523  15.2385366512172 4.80727174548891  C 15.2162753011239 4.92069407166695  15.2013945810049 5.03544095791784  15.1939882104126 5.15078972235972  C 14.9249921720932 5.14325056217831  14.6583920274828 5.09792853759454  14.4020159294425 5.01615443459479  C 14.2282291766181 4.95590840881116  14.0621018264931 4.87550277135068  13.9070332538361 4.77658281960132  C 13.7420611530182 4.65639455114589  13.5877190924162 4.52225606500043  13.445709400171 4.37564685236017  L 13.3467128650497 4.52909148179814  C 13.3912613058543 4.59244926427575  13.4328398506052 4.64986725464609  13.4664986725465 4.70233541826036  C 13.5001574944877 4.75480358187464  13.5595554155605 4.85973990910318  13.645682401116 5.01516446924358  C 13.7150795175546 5.14148846130374  13.7724208832915 5.27406965375897  13.8169464068758 5.41115060972866  C 13.8472581478689 5.52834238648034  13.8410408325225 5.65199788059189  13.7991270305539 5.76555820546281  C 13.7585384511542 5.88633397831076  13.5813346532871 6.03086891958782  13.2704855330063 6.19520316788913  C 13.1941105040626 6.09662428631101  13.1089548897614 6.00517312075799  13.0160644377447 5.92197273095442  L 12.8497502587409 5.78931737389191  C 13.0724924627638 5.71506997255096  13.2021779237727 5.65072222472214  13.231876884309 5.58637447689331  C 13.2653993549313 5.52008393286019  13.2653993549313 5.44180240111811  13.231876884309 5.375511857085  C 13.2098016954037 5.30743224993202  13.1823253283649 5.24122413658545  13.1497097601584 5.17751878684246  L 13.1269405570805 5.12901048463304  C 13.0338838140665 5.30027449039284  12.9101381451649 5.49232776852811  12.7586734464294 5.71605993790218  C 12.631305538168 5.90032054807428  12.4910390600836 6.0753228285144  12.3389281375152 6.2397516086937  L 11.9211627593034 6.70107546235882  C 11.8344557168842 6.63026187160461  11.7420783265483 6.56669033416913  11.6449624263151 6.51100211492598  Z M 32.6084687035954 4.7597534086307  C 32.5247441784038 4.55976574868837  32.4687867918136 4.34925938961117  32.4421545245916 4.13409530666427  C 32.4221059356446 3.95414832473478  32.4221059356446 3.7725312414804  32.4421545245916 3.59258425955092  C 32.4584115733327 3.45195271366365  32.4832064783181 3.31244004827971  32.5164019259326 3.17481888133915  C 32.5451109211178 3.06889258875939  32.6054988075417 2.89366872159474  32.6975655852045 2.65013724519642  C 32.8605561284237 2.76997292267827  33.0349753298307 2.87343069993869  33.2182873599424 2.95900643477478  C 33.1849171416743 3.00586147109494  33.155133471182 3.0551699922434  33.1291904783333 3.10651127210547  C 33.0997190117564 3.16130336580685  33.0752023826888 3.21861926889722  33.0559330423435 3.27777527786527  C 33.0178831172777 3.40717072124225  32.9913802847153 3.53968488405397  32.9767358142465 3.67376141835036  C 32.9499653012217 3.85470609502809  32.9655537062827 4.03939480716362  33.0222742204023 4.21329253476128  C 33.0633856019487 4.34395053147831  33.1157187243508 4.47080866995947  33.1786887458939 4.59244926427575  C 33.2166615467143 4.66605491162101  33.2593176701053 4.737148450606  33.3063942762003 4.80529181478648  C 33.3859332086907 4.90144766396963  33.471929227731 4.99207423788126  33.5637852675156 5.07654232101876  C 33.5045110298288 5.09548916658457  33.4474294222801 5.12071127224562  33.3935112271071 5.15177968771093  C 33.3400530981416 5.17751878684246  33.2054178103766 5.2666156684516  32.9866354677586 5.4141205057823  C 32.8324749331576 5.2138527996843  32.7053286459224 4.9941759683355  32.6084687035954 4.76074337398191  Z M 10.5292714754984 4.45781397651082  L 10.4332448364307 4.24200152994645  L 10.2035728749494 3.81334653287135  L 10.0501282455114 3.53912613058543  L 10.499572514962 3.32529361472349  L 11.5618053368132 2.77982270620528  C 11.4584329518658 2.74457297745688  11.3529616914033 2.71580808823985  11.2460063897764 2.69369572064978  C 11.2889296714425 2.64711645784006  11.329249573158 2.59820379018526  11.3667821626243 2.5471808486703  C 11.3984610538631 2.50362237321694  11.4657786977456 2.40462583809567  11.5588354407596 2.25019124330649  C 11.81226657067 2.30661926832561  11.9973900913468 2.34918777842776  12.119155829546 2.38779642712505  C 12.0946390864101 2.43168082929001  12.0734600091879 2.47734821455032  12.0557980470684 2.5244116455924  L 13.1873284435045 1.94033208837691  L 13.5942042028529 1.71264005759798  L 13.7318093866715 2.00269990550331  L 13.9604913828016 2.43135490257841  L 14.0862169824056 2.64815731449399  L 13.5823246186383 2.90356837510687  L 13.4744183953562 2.68379606713765  L 13.3308734194303 2.39571614993475  L 10.7737929172479 3.72226972055978  L 10.9123880664177 3.99352022679206  L 11.0331638392656 4.20042298519552  L 10.5292714754984 4.45781397651082  Z M 25.9163029293975 4.35089771857985  L 25.9182828600999 4.34891778787742  C 25.9182828600999 4.30634927777528  25.9252126175584 4.24992125275615  25.9271925482608 4.17666381676641  C 25.9257524241714 4.06683814491101  25.9084130311908 3.95780003905237  25.8757143499978 3.85294514691986  L 25.8331458398956 3.69950051748189  C 25.9302086832882 3.73242618070178  26.0294448545929 3.75855837247869  26.1301354452594 3.77770778022769  C 26.240021599244 3.80047698330559  26.3073392431265 3.79849705260316  26.3340683076092 3.77176798812042  C 26.3603664682141 3.73839184737264  26.3777408237644 3.69887370533664  26.3845565405211 3.65693200737974  L 26.8399406020789 1.07708230211943  L 24.3432479863205 0.643477478288262  L 24.2353417630383 1.24735634252801  C 24.2818701345453 1.23745668901589  24.3254286099987 1.22359717409891  24.3719569815057 1.20973765918193  C 24.4645651509643 1.17376195482653  24.5539781628977 1.13004892677022  24.6392476263331 1.07906223282185  C 24.6857759978401 1.19290824821131  24.7441839535616 1.31467398641048  24.8095216667417 1.45227917022904  C 24.8383649428857 1.38575008002944  24.8634829119519 1.3176671638765  24.8847590334338 1.24834630787923  C 24.9077533543128 1.17973604714108  24.9259466398627 1.10960920102119  24.9392071277505 1.03847365342213  L 24.978805741799 0.858299959501418  C 25.145725910205 0.941253611845625  25.3213749061075 1.00533727197638  25.5024974125906 1.04936327228547  C 25.4836880709175 1.09292174773883  25.4648787292445 1.14835980740674  25.4381496647617 1.21765738199163  C 25.411420600279 1.28695495657652  25.4054808081717 1.32160374386897  25.4025109121181 1.32754353597624  L 25.3124240651577 1.5502857399991  C 25.4239370910219 1.52805808250401  25.5314218851033 1.48900304862971  25.6311929082482 1.43445979390722  L 25.7420690275841 1.36615218467354  C 25.7895873644423 1.45920892768753  25.8410655627053 1.56414525491608  25.9004634837781 1.68690095846645  C 25.9494548518443 1.54594287701104  25.9910895157719 1.40253459014927  26.0251991180309 1.25725599604014  L 26.0479683211088 1.11767088151915  C 26.2225248951396 1.18595747008328  26.4014466932054 1.24251131013734  26.5835395761148 1.28695495657652  C 26.5661375477167 1.32937061949504  26.5509378329379 1.37265676375629  26.5380011699591 1.41664041758539  L 26.4528641497548 1.67205147819826  C 26.3914862979796 1.83539576114836  26.3409980650677 1.96904108356208  26.3013994510192 2.06803761868335  L 26.1905233316834 2.33136840210593  C 26.3370382036629 2.72735454259101  26.4172253971111 2.92534761283355  26.4201952931648 2.94118705845296  L 26.4706835260766 3.09859154929578  C 26.3051482429962 3.19005318229737  26.1451556294766 3.29120553712591  25.9915402960896 3.40152094676686  C 25.9658011969581 3.26985555505558  25.9519416820411 3.18966836160734  25.9430319938802 3.16689915852945  L 25.8707645232417 2.90653827116051  C 25.6727714529992 3.14215002474913  25.5391261305854 3.29064482743104  25.4747783827566 3.35400260990865  C 25.4010439571991 3.42894859211431  25.3205112309281 3.49688772333059  25.2342168024119 3.55694550690726  C 25.1866984655537 3.50348737794177  25.146109886154 3.45299914502992  25.1045313414031 3.40647077352293  C 25.023590665623 3.32420613134234  24.9369161482166 3.24778699576641  24.8451604193853 3.17778877739279  C 24.9966911278995 3.07949672343957  25.1365194848647 2.96424627244921  25.2619358322459 2.83427080052198  C 25.3621588123834 2.72519567653757  25.4504370787328 2.60572133110229  25.5252666156685 2.47788327408541  L 25.6242631507897 2.30463933762319  C 25.5880694404557 2.18540120670253  25.5457752030731 2.0681007827118  25.4975475858345 1.95320163794267  C 25.4727984520542 1.89875354362598  25.3985510507132 1.77500787472439  25.2916347927823 1.5809746658867  C 25.2193673221437 1.75421860234892  25.1708590199343 1.86509472168474  25.1451199208028 1.91558295459659  L 25.071862484813 2.05912793052243  C 25.1510597129101 2.26603068892589  25.225307114251 2.48184313549026  25.2975745848895 2.70755523556676  C 25.1666403125359 2.74992091833898  25.0402829440258 2.80530590663607  24.9203977860775 2.87287944921928  L 24.8006119785808 2.95306664266751  C 24.7968952379738 2.88920070094817  24.788624510293 2.82568151235952  24.7758628448004 2.76299329523467  L 24.7382441614544 2.63429779957701  C 24.6969559473038 2.69359647269191  24.6526803757039 2.75075821811576  24.6055888043919 2.80556180533681  C 24.4883025287789 2.93781142475066  24.3640506243743 3.0637156151181  24.2333618323359 3.18273860414886  C 24.2076227332043 3.13027044053458  24.1759438419655 3.07780227692031  24.1492147774828 3.02236421725239  C 24.0937679132992 2.92629106055502  24.0329537238265 2.83341721684936  23.9670611528597 2.74418395356162  L 23.8680646177384 3.2797552085677  L 23.7690680826171 3.85789497367592  L 23.1919182828601 3.75889843855465  L 23.3018044368447 3.18570850020249  L 23.7799577014804 0.564280250191243  L 23.8631147909823 0.028708995185168  L 24.3996760113396 0.139585114520991  L 26.9438869639563 0.581109661161858  L 27.4735184268551 0.657336993205237  L 27.3685820996265 1.18894838680646  L 26.8795392161274 3.96877109301175  C 26.8634193312527 4.05516708525348  26.8368239621843 4.13927493993249  26.8003419880304 4.21923232686856  C 26.7666831660892 4.29347972820951  26.6795662151825 4.3390181343653  26.5479008234712 4.36079737209198  C 26.4761459542064 4.3715297491249  26.4036464993058 4.37649546521398  26.3310984115556 4.37564685236017  C 26.1924887272948 4.37486439865623  26.0540222494964 4.36660267563723  25.9163029293975 4.35089771857985  Z M 24.2224722134725 1.33843315483958  L 23.977950771723 2.68379606713765  C 24.0850901427331 2.60125756805754  24.1844965457083 2.50914096796724  24.2749403770868 2.40858569950052  C 24.3754434889152 2.29140239273458  24.4596893330331 2.16120427000684  24.5254016109436 2.02150924717635  C 24.4036358727445 1.72451964181254  24.3274085407011 1.5582054628088  24.3066192683256 1.5116770913018  L 24.2224722134725 1.33843315483958  Z M 18.8717094901678 4.14003509877154  L 18.8756693515727 4.14102506412276  C 18.8005597732256 4.11823389480896  18.7357771012903 4.06990952331126  18.6925257615983 4.0044098456554  C 18.6580844080144 3.9293905179298  18.6350603713199 3.84964059372728  18.6242181523647 3.76780812671556  L 18.5252216172434 3.12829050983215  L 17.6817711380102 3.25995590154344  L 17.6956306529272 3.32529361472348  L 17.1392701255456 3.4124105656302  L 17.0818521351753 2.95702650407235  L 16.8165414210503 1.27408540701075  L 16.7383341583045 0.887998920037796  L 17.1590694325699 0.837510687125946  L 18.1351752688656 0.687035953741616  L 18.0995365162219 0.437564685236013  L 18.0312289069882 0.0920667776627777  L 18.588579399721 0.0059397921072728  L 18.6321378751744 0.354407595734146  L 18.6717364892229 0.60090896818611  L 19.8200962966296 0.415785447509337  L 20.1764838230662 0.348467803626873  L 20.2249921252756 0.735544255951042  L 20.4962426315079 2.46402375916843  L 20.5774197903073 2.89564865229717  L 20.0240291589794 2.97979570715025  L 20.0101696440625 2.89564865229717  L 19.0528731494398 3.04513342033029  L 19.1271205507807 3.50843720469784  C 19.1342381139324 3.54618289741838  19.1529205298534 3.58077996393881  19.1805786797462 3.60743373981911  C 19.2423202855914 3.6367578228739  19.3124128702456 3.64341661841604  19.3785717499888 3.62624308149215  L 19.8626648067318 3.56189533366332  C 20.0125246705544 3.54665949445884  20.1613019982679 3.52219388945707  20.3081492147775 3.48863789767358  C 20.3853646293283 3.47164043079637  20.4559141275367 3.4324080269146  20.5110921117761 3.37578184763533  C 20.5660011695528 3.30454205727616  20.5908717151468 3.21465279962929  20.580389686361 3.12532061377852  L 20.580389686361 2.94712685056023  C 20.7647035183838 3.02355980035321  20.9560048207456 3.08191167074436  21.1515996940107 3.12136075237367  C 21.1389537691907 3.32071314690912  21.0927672772574 3.5165037105393  21.0149844755434 3.7004904828331  C 20.9739938045829 3.76837077966626  20.9172946307738 3.82540946948618  20.8496602618908 3.86680466183684  C 20.7557782103019 3.9135244783044  20.6558081876787 3.94684781917881  20.552670656527 3.96580119695811  C 20.4180353687621 3.99055033073843  20.2071727489538 4.02222922197723  19.9250326238582 4.05786797462089  C 19.6428924987625 4.09350672726455  19.4300499482518 4.12419565315214  19.2607658731945 4.14894478693246  C 19.1954510345032 4.16103413248264  19.1291956843736 4.16732839074495  19.0627728029519 4.1677541286055  C 18.9979470032772 4.16988510153715  18.9332571258971 4.16050004160636  18.8717094901678 4.14003509877154  Z M 18.3598974035909 2.150204742834  L 17.5223867164649 2.27989020384286  L 17.6025739099132 2.77487287944922  L 18.4400845970391 2.64518741844035  L 18.3598974035909 2.150204742834  Z M 19.8567250146245 1.91459298924538  L 18.8974485892994 2.06605768798092  L 18.9776357827476 2.56104036358727  L 19.9339423120191 2.40957566485173  L 19.8567250146245 1.91459298924538  Z M 18.2074427395041 1.1760788372407  L 17.3679521216757 1.30675426360077  L 17.4491292804752 1.81460648877289  L 18.290599829006 1.68393106241282  L 18.2074427395041 1.1760788372407  Z M 19.7013004544841 0.945416910408135  L 18.7430139945102 1.09391171309004  L 18.8232011879584 1.59978400755973  L 19.7804976825811 1.45128920487783  L 19.7013004544841 0.945416910408135  Z M 29.7999370022049 3.19560815371462  L 29.7999370022049 3.19956801511947  L 29.7435089771858 3.06097286594969  C 29.9690682972112 3.07871010530146  30.1959623503355 3.05454387479119  30.4127255546056 2.98969536066238  C 30.6589579520932 2.92607609366178  30.8991233518287 2.84094160023831  31.1304504342348 2.73527426540071  C 31.3442887748537 2.63358540359291  31.5439632061631 2.50446260467949  31.7244296449624 2.35116770913018  L 31.8313459028934 2.25811096611618  C 31.9358601923181 2.43694601738134  32.060771019186 2.60305084034403  32.2035728749494 2.75309364172254  C 31.9184628538001 2.91841785537506  31.6788912388066 3.05998290059848  31.4828780992665 3.16590919317824  C 31.2428702336774 3.29386659947216  30.9904444017567 3.39702617073015  30.7295144669936 3.47378841740539  C 30.4236151734689 3.56486522971696  30.1454349097782 3.63515276965306  29.9019034333798 3.68366107186248  C 29.8810585721413 3.51850542998121  29.8469597538307 3.35529458117422  29.7999370022049 3.19560815371462  Z " fill-rule="nonzero" fill="#ffffff" stroke="none" transform="matrix(1 0 0 1 16 8 )" />
  </g>
</svg>