<?xml version="1.0" encoding="utf-8"?>
<svg version="1.1" xmlns:xlink="http://www.w3.org/1999/xlink" width="17px" height="17px" xmlns="http://www.w3.org/2000/svg">
  <defs>
    <mask fill="white" id="clip689">
      <path d="M 16.7895654659806 6.84471110844849  C 16.7895654659806 6.84471110844849  10.1003716409377 0.411149218811944  10.1003716409377 0.411149218811944  C 9.62484482797058 -0.0195867921062408  7.53942046648339 -0.0195867921062408  7.06389365351629 0.411149218811944  C 7.06389365351629 0.411149218811944  0.285277301315036 6.84568309241731  0.285277301315036 6.84568309241731  C 0.158425244638695 6.96390030493757  0.086387671930835 7.1295044665529  0.086387671930835 7.30290213922953  C 0.086387671930835 7.64807220575757  0.366203303697536 9.28866538753403  0.711373378048617 9.28866538753403  C 0.862405605047338 9.28866538753403  1.00832882858118 7.87319619680007  1.12215551743854 7.77392778264286  C 1.12215551743854 7.77392778264286  1.2300457404231 7.66895351401002  1.2300457404231 7.66895351401002  C 1.2300457404231 7.66895351401002  1.2300457404231 15.7451683109567  1.2300457404231 15.7451683109567  C 1.23003944090994 15.7467884050145  1.23003629114444 15.748408509789  1.23003629114444 15.7500286160942  C 1.23003629114444 16.4403687491503  1.78966755467784 17  2.48000770338 17  C 2.48098913664951 16.9999996147066  6.12009719839909 16.9999996147066  6.12009719839909 16.9999996147066  C 6.12009719839909 16.9999996147066  6.12009719839909 13.2364776874257  6.12009719839909 13.2364776874257  C 6.12009666198391 12.7491541011637  6.51436254437992 12.3548882277034  7.00071415769575 12.3548882277034  C 7.00071469411092 12.3548882277036  10.0741280731847 12.3548882277036  10.0741280731847 12.3548882277036  C 10.5604802229157 12.3548882277034  10.9547461053117 12.7491541011637  10.9547461053117 13.2355057034567  C 10.9547455688965 13.2364776874257  10.9547455688965 16.9999996147066  10.9547455688965 16.9999996147066  C 10.9547455688965 16.9999996147066  14.6803602058319 16.9999996147066  14.6803602058319 16.9999996147066  C 15.3716738507546 16.9999999937933  15.931305114288 16.4403687429436  15.931305114288 15.7500286098875  C 15.931305114288 15.749380493919  15.9313046102113 15.7487323780476  15.9313036020583 15.7480842628632  C 15.9313036020583 15.7480842628632  15.9313036020583 7.75351611929759  15.9313036020583 7.75351611929759  C 16.0473223665429 7.86308250081423  16.2008565085418 9.28489915845718  16.3604345340194 9.28489915845718  C 16.705616922266 9.28489915845718  16.9854425364174 7.6442959942963  16.9854425364174 7.29911361387304  C 16.9854425364174 7.12714917269717  16.9145895875222 6.96278201413745  16.7895654659806 6.84471110844849  Z " fill-rule="evenodd" />
    </mask>
  </defs>
  <g transform="matrix(1 0 0 1 -32 -85 )">
    <path d="M 16.7895654659806 6.84471110844849  C 16.7895654659806 6.84471110844849  10.1003716409377 0.411149218811944  10.1003716409377 0.411149218811944  C 9.62484482797058 -0.0195867921062408  7.53942046648339 -0.0195867921062408  7.06389365351629 0.411149218811944  C 7.06389365351629 0.411149218811944  0.285277301315036 6.84568309241731  0.285277301315036 6.84568309241731  C 0.158425244638695 6.96390030493757  0.086387671930835 7.1295044665529  0.086387671930835 7.30290213922953  C 0.086387671930835 7.64807220575757  0.366203303697536 9.28866538753403  0.711373378048617 9.28866538753403  C 0.862405605047338 9.28866538753403  1.00832882858118 7.87319619680007  1.12215551743854 7.77392778264286  C 1.12215551743854 7.77392778264286  1.2300457404231 7.66895351401002  1.2300457404231 7.66895351401002  C 1.2300457404231 7.66895351401002  1.2300457404231 15.7451683109567  1.2300457404231 15.7451683109567  C 1.23003944090994 15.7467884050145  1.23003629114444 15.748408509789  1.23003629114444 15.7500286160942  C 1.23003629114444 16.4403687491503  1.78966755467784 17  2.48000770338 17  C 2.48098913664951 16.9999996147066  6.12009719839909 16.9999996147066  6.12009719839909 16.9999996147066  C 6.12009719839909 16.9999996147066  6.12009719839909 13.2364776874257  6.12009719839909 13.2364776874257  C 6.12009666198391 12.7491541011637  6.51436254437992 12.3548882277034  7.00071415769575 12.3548882277034  C 7.00071469411092 12.3548882277036  10.0741280731847 12.3548882277036  10.0741280731847 12.3548882277036  C 10.5604802229157 12.3548882277034  10.9547461053117 12.7491541011637  10.9547461053117 13.2355057034567  C 10.9547455688965 13.2364776874257  10.9547455688965 16.9999996147066  10.9547455688965 16.9999996147066  C 10.9547455688965 16.9999996147066  14.6803602058319 16.9999996147066  14.6803602058319 16.9999996147066  C 15.3716738507546 16.9999999937933  15.931305114288 16.4403687429436  15.931305114288 15.7500286098875  C 15.931305114288 15.749380493919  15.9313046102113 15.7487323780476  15.9313036020583 15.7480842628632  C 15.9313036020583 15.7480842628632  15.9313036020583 7.75351611929759  15.9313036020583 7.75351611929759  C 16.0473223665429 7.86308250081423  16.2008565085418 9.28489915845718  16.3604345340194 9.28489915845718  C 16.705616922266 9.28489915845718  16.9854425364174 7.6442959942963  16.9854425364174 7.29911361387304  C 16.9854425364174 7.12714917269717  16.9145895875222 6.96278201413745  16.7895654659806 6.84471110844849  Z " fill-rule="nonzero" fill="#ffffff" stroke="none" transform="matrix(1 0 0 1 32 85 )" />
    <path d="M 16.7895654659806 6.84471110844849  C 16.7895654659806 6.84471110844849  10.1003716409377 0.411149218811944  10.1003716409377 0.411149218811944  C 9.62484482797058 -0.0195867921062408  7.53942046648339 -0.0195867921062408  7.06389365351629 0.411149218811944  C 7.06389365351629 0.411149218811944  0.285277301315036 6.84568309241731  0.285277301315036 6.84568309241731  C 0.158425244638695 6.96390030493757  0.086387671930835 7.1295044665529  0.086387671930835 7.30290213922953  C 0.086387671930835 7.64807220575757  0.366203303697536 9.28866538753403  0.711373378048617 9.28866538753403  C 0.862405605047338 9.28866538753403  1.00832882858118 7.87319619680007  1.12215551743854 7.77392778264286  C 1.12215551743854 7.77392778264286  1.2300457404231 7.66895351401002  1.2300457404231 7.66895351401002  C 1.2300457404231 7.66895351401002  1.2300457404231 15.7451683109567  1.2300457404231 15.7451683109567  C 1.23003944090994 15.7467884050145  1.23003629114444 15.748408509789  1.23003629114444 15.7500286160942  C 1.23003629114444 16.4403687491503  1.78966755467784 17  2.48000770338 17  C 2.48098913664951 16.9999996147066  6.12009719839909 16.9999996147066  6.12009719839909 16.9999996147066  C 6.12009719839909 16.9999996147066  6.12009719839909 13.2364776874257  6.12009719839909 13.2364776874257  C 6.12009666198391 12.7491541011637  6.51436254437992 12.3548882277034  7.00071415769575 12.3548882277034  C 7.00071469411092 12.3548882277036  10.0741280731847 12.3548882277036  10.0741280731847 12.3548882277036  C 10.5604802229157 12.3548882277034  10.9547461053117 12.7491541011637  10.9547461053117 13.2355057034567  C 10.9547455688965 13.2364776874257  10.9547455688965 16.9999996147066  10.9547455688965 16.9999996147066  C 10.9547455688965 16.9999996147066  14.6803602058319 16.9999996147066  14.6803602058319 16.9999996147066  C 15.3716738507546 16.9999999937933  15.931305114288 16.4403687429436  15.931305114288 15.7500286098875  C 15.931305114288 15.749380493919  15.9313046102113 15.7487323780476  15.9313036020583 15.7480842628632  C 15.9313036020583 15.7480842628632  15.9313036020583 7.75351611929759  15.9313036020583 7.75351611929759  C 16.0473223665429 7.86308250081423  16.2008565085418 9.28489915845718  16.3604345340194 9.28489915845718  C 16.705616922266 9.28489915845718  16.9854425364174 7.6442959942963  16.9854425364174 7.29911361387304  C 16.9854425364174 7.12714917269717  16.9145895875222 6.96278201413745  16.7895654659806 6.84471110844849  Z " stroke-width="2.72155517438536" stroke="#999999" fill="none" transform="matrix(1 0 0 1 32 85 )" mask="url(#clip689)" />
  </g>
</svg>