<?xml version="1.0" encoding="utf-8"?>
<svg version="1.1" xmlns:xlink="http://www.w3.org/1999/xlink" width="68px" height="51px" xmlns="http://www.w3.org/2000/svg">
  <g transform="matrix(1 0 0 1 -366 -102 )">
    <path d="M 67.286 38.1317880794702  C 67.762 39.2350993377484  68 40.4172185430464  68 41.6781456953642  C 68 42.8039735099338  67.8073333333333 43.8622516556291  67.422 44.8529801324503  C 67.0366666666667 45.8437086092715  66.4926666666667 46.7331125827815  65.79 47.5211920529801  C 65.0873333333333 48.3092715231788  64.2713333333333 48.9735099337748  63.342 49.5139072847682  C 62.4126666666667 50.0543046357616  61.404 50.4145695364238  60.316 50.594701986755  L 60.384 50.6622516556291  L 59.228 50.6622516556291  L 58.956 50.6622516556291  L 58.684 50  L 13.804 50  C 13.5773333333333 50.7072847682119  13.2146666666667 50.7298013245033  12.716 50.7298013245033  C 10.948 50.7298013245033  9.29333333333333 50.3920529801325  7.752 49.7165562913907  C 6.21066666666666 49.041059602649  4.862 48.1291390728477  3.706 46.9807947019868  C 2.55 45.8324503311258  1.64333333333333 44.4927152317881  0.985999999999997 42.9615894039735  C 0.328666666666666 41.4304635761589  0 39.7867549668874  0 38.030463576159  C 0 36.2741721854305  0.328666666666666 34.630463576159  0.985999999999997 33.0993377483444  C 1.64333333333333 31.5682119205298  2.54999999999999 30.2284768211921  3.706 29.0801324503311  C 4.862 27.9317880794702  6.21066666666667 27.0198675496689  7.752 26.3443708609272  C 9.29333333333333 25.6688741721854  10.948 25.3311258278146  12.716 25.3311258278146  L 12.784 25.3311258278146  C 12.7386666666667 24.9708609271523  12.716 24.6331125827815  12.716 24.317880794702  L 12.716 23.2370860927152  C 12.716 20.0397350993378  13.328 17.0225165562914  14.552 14.1854304635762  C 15.776 11.3483443708609  17.4533333333333 8.88278145695365  19.584 6.78874172185431  C 21.7146666666667 4.69470198675498  24.1966666666667 3.03973509933776  27.03 1.82384105960266  C 29.8633333333333 0.60794701986756  32.8893333333333 0  36.108 0  C 39.3266666666667 0  42.364 0.60794701986756  45.22 1.82384105960266  C 48.076 3.03973509933776  50.5693333333333 4.69470198675498  52.7 6.78874172185431  C 54.8306666666667 8.88278145695365  56.508 11.3483443708609  57.732 14.1854304635762  C 58.956 17.0225165562914  59.568 20.0397350993378  59.568 23.2370860927152  C 59.568 24.9033112582782  59.3866666666667 26.535761589404  59.024 28.1344370860927  C 58.6613333333333 29.7331125827815  58.1626666666667 31.2529801324504  57.528 32.6940397350993  C 57.7546666666667 32.6490066225166  57.9926666666667 32.6152317880795  58.242 32.5927152317881  C 58.4913333333333 32.5701986754967  58.7293333333333 32.558940397351  58.956 32.558940397351  C 60.18 32.558940397351  61.3473333333333 32.7953642384106  62.458 33.2682119205298  C 63.5686666666667 33.741059602649  64.532 34.3940397350993  65.348 35.2271523178808  C 66.164 36.0602649006623  66.81 37.0284768211921  67.286 38.1317880794702  Z M 42.058 33.6735099337748  C 42.9873333333333 33.6509933774835  43.7013333333333 33.6397350993378  44.2 33.6397350993377  C 45.1066666666667 33.6397350993377  45.696 33.5384105960265  45.968 33.335761589404  C 46.24 33.1331125827815  46.0586666666667 32.6490066225166  45.424 31.8834437086093  C 44.7893333333333 31.0728476821192  44.0866666666667 30.0145695364239  43.316 28.7086092715232  C 42.5453333333333 27.4026490066225  41.7406666666667 26.0741721854305  40.902 24.723178807947  C 40.0633333333333 23.3721854304636  39.2133333333333 22.1112582781457  38.352 20.9403973509934  C 37.4906666666667 19.7695364238411  36.652 18.9139072847682  35.836 18.3735099337748  C 35.02 17.7880794701987  34.4193333333333 17.4728476821192  34.034 17.4278145695364  C 33.6486666666667 17.3827814569537  33.0933333333333 17.6529801324503  32.368 18.2384105960265  C 31.552 18.9139072847682  30.7586666666667 19.7695364238411  29.988 20.805298013245  C 29.2173333333333 21.841059602649  28.4353333333333 22.9443708609272  27.642 24.1152317880795  C 26.8486666666667 25.2860927152318  26.0553333333333 26.4344370860927  25.262 27.5602649006623  C 24.4686666666667 28.6860927152318  23.664 29.676821192053  22.848 30.5324503311258  C 22.032 31.3430463576159  21.7373333333333 32.0635761589404  21.964 32.6940397350993  C 22.1906666666667 33.3245033112583  22.7573333333333 33.6397350993378  23.664 33.6397350993378  L 24.752 33.6397350993378  C 25.16 33.6397350993378  25.602 33.6509933774835  26.078 33.6735099337748  C 26.554 33.6960264900662  27.0186666666667 33.7072847682119  27.472 33.7072847682119  L 28.628 33.7072847682119  C 29.2626666666667 33.7523178807947  29.6706666666667 33.9662251655629  29.852 34.3490066225166  C 30.0333333333333 34.7317880794702  30.124 35.2609271523179  30.124 35.9364238410596  C 30.124 36.7019867549669  30.1126666666667 37.3774834437086  30.09 37.9629139072848  C 30.0673333333333 38.5483443708609  30.056 39.1112582781457  30.056 39.6516556291391  C 30.056 40.1920529801325  30.0446666666667 40.7549668874172  30.022 41.3403973509934  C 29.9993333333333 41.9258278145695  29.988 42.6013245033113  29.988 43.3668874172185  C 29.988 43.682119205298  30.022 44.0198675496689  30.09 44.3801324503311  C 30.158 44.7403973509934  30.2826666666667 45.0781456953642  30.464 45.3933774834437  C 30.6453333333334 45.7086092715232  30.9173333333333 45.9675496688742  31.28 46.1701986754967  C 31.6426666666667 46.3728476821192  32.1186666666667 46.4741721854305  32.708 46.4741721854305  L 34.272 46.4741721854305  C 34.68 46.4741721854305  35.292 46.4966887417218  36.108 46.5417218543046  C 37.196 46.5417218543046  37.8193333333333 46.271523178808  37.978 45.7311258278146  C 38.1366666666667 45.1907284768212  38.216 44.3350993377484  38.216 43.164238410596  C 38.216 42.128476821192  38.2273333333333 41.1940397350993  38.25 40.3609271523179  C 38.2726666666667 39.5278145695364  38.284 38.3907284768212  38.284 36.9496688741722  C 38.284 35.9139072847682  38.386 35.1145695364239  38.59 34.5516556291391  C 38.794 33.9887417218543  39.236 33.7072847682119  39.916 33.7072847682119  C 40.4146666666667 33.7072847682119  41.1286666666667 33.6960264900662  42.058 33.6735099337748  Z " fill-rule="nonzero" fill="#31969a" stroke="none" transform="matrix(1 0 0 1 366 102 )" />
  </g>
</svg>