<?xml version="1.0" encoding="utf-8"?>
<svg version="1.1" xmlns:xlink="http://www.w3.org/1999/xlink" width="15px" height="16px" xmlns="http://www.w3.org/2000/svg">
  <g transform="matrix(1 0 0 1 -1334 -98 )">
    <path d="M 7.49973551432292 15.9182021103896  C 6.49267578125 15.9182021103896  5.5145263671875 15.7255478896104  4.59458414713542 15.3435267857143  C 3.70530192057292 14.9761769480519  2.9078369140625 14.4496956168831  2.2225341796875 13.7789163961039  C 1.53715006510417 13.1079342532467  0.999287923177083 12.3262987012987  0.62298583984375 11.4564529220779  C 0.233784993489583 10.5559253246753  0.036295572916667 9.59910714285714  0.036295572916667 8.61260146103896  C 0.036295572916667 7.43236607142857  0.331949869791667 6.26055194805194  0.890665690104167 5.22254464285714  C 1.43084716796875 4.21960227272727  2.215576171875 3.33896103896104  3.16050211588542 2.67599431818181  C 3.42303466796875 2.49180194805194  3.78780110677083 2.55152191558441  3.97544352213542 2.80789366883117  C 4.1630859375 3.06434659090909  4.10321044921875 3.42079951298701  3.840576171875 3.60387581168831  C 3.04207356770833 4.165625  2.37931315104167 4.90801542207792  1.92392985026042 5.75472808441558  C 1.44596354166667 6.64214691558441  1.203857421875 7.60351055194805  1.203857421875 8.61262175324675  C 1.203857421875 10.2591112012987  1.85890706380208 11.8071428571429  3.04850260416667 12.9710430194805  C 4.23732503255208 14.1353896103896  5.81833902994792 14.776663961039  7.49977620442708 14.776663961039  C 9.18076578776042 14.776663961039  10.7622273763021 14.1353693181818  11.9517822265625 12.9710430194805  C 13.1412556966146 11.8071834415584  13.7957967122396 10.2591314935065  13.7957967122396 8.61262175324675  C 13.7957967122396 7.60464691558441  13.5542399088542 6.64157873376623  13.0757242838542 5.75472808441558  C 12.6202392578125 4.90870535714285  11.95703125 4.16566558441558  11.1583251953125 3.60501217532467  C 10.8964233398437 3.42201704545454  10.8353678385417 3.06548295454545  11.0236409505208 2.80913149350649  C 11.2118326822917 2.55275974025974  11.5759480794271 2.49249188311688  11.8379313151042 2.67723214285714  C 12.7834269205729 3.34007711038961  13.5692749023437 4.22071834415584  14.1089884440104 5.2236810064935  C 14.6681925455729 6.2617086038961  14.9638468424479 7.4335836038961  14.9638468424479 8.61381899350649  C 14.9638468424479 9.60020292207792  14.7664184570312 10.5570413961039  14.3766479492187 11.458198051948  C 14.0008138020833 12.3280438311688  13.4624837239583 13.1096996753247  12.7772013346354 13.7805600649351  C 12.0917154947917 14.4514407467532  11.2942097981771 14.9772524350649  10.4050496419271 15.3464082792208  C 9.48455810546874 15.7261160714286  8.50697835286458 15.9182021103896  7.49983723958333 15.9182021103896  Z M 7.67515055338542 7.99066558441558  C 7.35272216796875 7.99066558441558  7.0914306640625 7.73599837662338  7.0914306640625 7.41988636363636  L 7.0914306640625 0.653145292207793  C 7.0914306640625 0.338189935064936  7.35276285807292 0.0817978896103908  7.67515055338542 0.0817978896103908  C 7.99757893880208 0.0817978896103908  8.25944010416667 0.338169642857144  8.25944010416667 0.653145292207793  L 8.25944010416667 7.41988636363636  C 8.25944010416667 7.73597808441558  7.99753824869792 7.99066558441558  7.67515055338542 7.99066558441558  Z " fill-rule="nonzero" fill="#31969a" stroke="none" transform="matrix(1 0 0 1 1334 98 )" />
  </g>
</svg>