<?xml version="1.0" encoding="utf-8"?>
<svg version="1.1" xmlns:xlink="http://www.w3.org/1999/xlink" width="14px" height="14px" xmlns="http://www.w3.org/2000/svg">
  <g transform="matrix(1 0 0 1 -994 -240 )">
    <path d="M 2.18870229007634 1  L 13.9070229007634 1  L 13.9070229007634 0.964000483962227  C 13.9070232710693 0.963666977502857  13.9070234562222 0.963333470887942  13.9070234562222 0.962999964248571  C 13.9070234562222 0.431149769906486  13.4462526926511 0  12.8778631508787 0  C 12.8775067315568 0  12.8771503122593 0  12.8767938931298 0  L 1.04412213740458 0  C 1.04376571827476 0  1.04340929897782 0  1.04305287965563 0  C 0.474663337883209 0  0.0138925743121221 0.431149769906486  0.0138925743121221 0.962999964248571  C 0.0138925743121221 0.963333470887119  0.013892759465104 0.96366697750368  0 0.964000483962227  L 0 13.0370000357514  C 0.0138931297709926 13.5690000160009  0.474503816793893 14  1.04412213740458 14  L 1 14  L 1 2.03500044420129  C 1.08259541984733 1.46300046543682  1.57740458015267 1.00000048262572  2.18870229007634 1  Z " fill-rule="nonzero" fill="#31969a" stroke="none" transform="matrix(1 0 0 1 994 240 )" />
  </g>
</svg>