<?xml version="1.0" encoding="utf-8"?>
<svg version="1.1" xmlns:xlink="http://www.w3.org/1999/xlink" width="14px" height="14px" xmlns="http://www.w3.org/2000/svg">
  <g transform="matrix(1 0 0 1 -996 -242 )">
    <path d="M 14 0.964000483962228  C 13.9075018072976 0.431436286262517  13.4459467975476 0  12.8767938931298 0  L 1.04412213740458 0  C 1.04376571827505 0  1.04340929897753 0  1.04305287965563 0  C 0.474663337883209 0  0.0138925743121206 0.431149769906486  0.0138925743121206 0.962999964248571  C 0.0138925743121206 0.963333470887394  0.0138927594651025 0.963666977503406  0 0.964000483962227  L 0 13.0370000357514  C 0.0138931297709919 13.5690000160009  0.474503816793893 14  1.04412213740458 14  L 12.8778625954198 14  C 13.4468423651692 14  13.9080916030534 13.56840251486  14 13.0360000357886  L 14 0.964000483962228  Z M 11.7690850370992 8.97350018660909  C 11.7690850370992 9.24952880158291  11.5302590106684 9.47344866340458  11.2352671755725 9.474000168028  L 7.7181679389313 9.474000168028  L 9.45053435114504 11.0950001078483  C 9.65842413954024 11.2901349756905  9.65842413954024 11.6058652137958  9.45053435114504 11.801000081638  L 9.44946564885496 11.8020000816009  C 9.24092456097612 11.9965255192346  8.90350291993991 11.9965255192346  8.69496183206107 11.8020000816009  L 6.05099236641221 9.32800017344826  L 6.04885496183206 9.32600017352251  C 6.0381679389313 9.31600017389376  6.03496183206107 9.30300017437638  6.02534351145038 9.29300017474764  C 5.98819639837665 9.25496783847389  5.95755477840271 9.2117914801001  5.93450381679389 9.16500017949964  C 5.8799991339522 9.04208042363089  5.8799991339522 8.90391994962442  5.93450381679389 8.78100019375566  C 5.95800578969092 8.73276134536149  5.98937197895499 8.68823062905456  6.02748091603053 8.64900019865617  C 6.03603053435114 8.6400001989903  6.03923664122137 8.6280001994358  6.04778625954198 8.6200001997328  L 8.69282442748092 6.14500029161731  C 8.79266505068629 6.0513862505966  8.92820104634789 5.99877828100729  9.06954198473282 5.99877828100729  C 9.21088292311776 5.99877828100729  9.34641891877936 6.05138625059661  9.44625954198473 6.14500029161731  L 9.44839694656488 6.14700029154306  C 9.54844249030121 6.24042258550264  9.60466474996483 6.3672455481634  9.60466474996483 6.49950027845648  C 9.60466474996483 6.63175500874956  9.54844249030121 6.75857797141032  9.44839694656488 6.85200026536989  L 7.71603053435115 8.47300020519018  L 11.2331297709924 8.47300020519018  C 11.2334860046443 8.47299953919037  11.2338422389195 8.47299920619021  11.2341984732824 8.47299920619021  C 11.5296081653679 8.47299920619021  11.7690850370992 8.69708112784838  11.7690850370992 8.97350018660909  Z " fill-rule="nonzero" fill="#31969a" stroke="none" transform="matrix(1 0 0 1 996 242 )" />
  </g>
</svg>