<?xml version="1.0" encoding="utf-8"?>
<svg version="1.1" xmlns:xlink="http://www.w3.org/1999/xlink" width="45px" height="41px" xmlns="http://www.w3.org/2000/svg">
  <g transform="matrix(1 0 0 1 -76 -19 )">
    <path d="M 15.6367924528302 37.0684931506849  L 15.6721698113207 37.0684931506849  C 11.9545742874087 35.7698905925055  8.05539346441388 35.0553260172793  5 34.950627872164  L 5 4.09531965298587  L 6.01415094339623 4.09531965298588  C 10.2847423144848 4.06118502206792  14.5241613437906 4.81915054545273  18.5141509249705 6.33019404564426  L 21.7688679061026 7.57049088586259  C 22.2261759824828 7.73398744960005  22.7266541693451 7.73398744960005  23.1839622457252 7.57049088586259  L 25.7193396226415 6.56421232876713  C 29.715794556057 4.98201208092304  33.9755539038316 4.15651717039017  38.2783018867924 4.1304223927119  L 40.8018867740271 4.1304223927119  L 40.8018867740271 11.548801369863  C 40.881420784886 12.5663358454155  41.7367556577041 13.3517577628986  42.7653301702535 13.3517577628986  C 43.7939046828029 13.3517577628986  44.6492395556211 12.5663358454155  44.72877356648 11.548801369863  L 44.72877356648 2.18807075797303  C 44.7326603045372 1.6714564284725  44.5289642361708 1.17459072277915  44.1627358306309 0.807363013698632  C 43.813509546995 0.400774514598596  43.2976335948799 0.172798148223845  42.7594339806899 0.187214593589469  L 38.266509452388 0.187214593589469  C 33.4641754546104 0.223393070345812  28.711618723253 1.1562055520595  24.2570754901238 2.93692924202697  L 22.452830207105 3.69748856619221  L 19.9174528301887 2.73801369863014  C 15.4758465800186 1.03429562168113  10.7524758528175 0.169179821766051  5.99056601931014 0.187214593589469  L 2.14622643352005 0.187214593589469  C 1.05668833655772 0.200065877883691  0.182116423241756 1.08353170179051  1 2.16466896805437  L 1 36.8695776072881  C 0.201595305280035 37.939620955173  1.07952692330207 38.8003050364312  2.15801886792453 38.8002282922196  L 3.0306603957842 38.8002282922196  C 6.88402980488 38.8182511225615  10.7069390324214 39.4788038149077  14.3396226230837 40.7542808219178  C 14.5485591511307 40.8243397194336  14.7676634390786 40.8599148320607  14.9882075655955 40.8595890410959  C 16.0670740061361 40.8474637945949  16.9352423186869 39.9762221944596  16.9352423186869 38.9056618483165  C 16.9352423186869 38.0831505834644  16.4161541282451 37.3486959080344  15.6367924528302 37.0684931506849  Z " fill-rule="nonzero" fill="#31969a" stroke="none" transform="matrix(1 0 0 1 76 19 )" />
  </g>
</svg>