<?xml version="1.0" encoding="utf-8"?>
<svg version="1.1" xmlns:xlink="http://www.w3.org/1999/xlink" width="41px" height="36px" xmlns="http://www.w3.org/2000/svg">
  <g transform="matrix(1 0 0 1 -83 -31 )">
    <path d="M 10.4169151905103 12.6169354744204  C 10.4169151905103 11.5013633629863  9.52390608681697 10.5969610938671  8.4222027972028 10.5967741935484  L 2.18618881118881 10.5967741935484  C 1.08402073203171 10.5967741651966  0.19080792708115 11.5012311911379  0.19080792708115 12.6169354744204  C 0.19080792708115 13.7326397577029  1.08402073203171 14.6370967836442  2.185854565794 14.6370967836442  L 8.4222027972028 14.6370967552923  C 9.52390608681697 14.6369098549736  10.4169151905103 13.7325075858545  10.4169151905103 12.6169354744204  Z M 10.4169151904997 2.20161289377521  C 10.4169151904997 1.08604078234528  9.52390608681283 0.181638513227854  8.4222027972028 0.181451612903224  L 2.18618881118881 0.181451612903224  C 1.08402073201055 0.181451584551414  0.190807927059995 1.08590861049269  0.190807927059995 2.20161289377521  C 0.190807927059995 3.31731717705771  1.08402073201055 4.22177420299899  2.18585456577285 4.22177420299899  L 8.4222027972028 4.22177417464718  C 9.52390608681283 4.22158727432255  10.4169151904997 3.31718500520512  10.4169151904997 2.20161289377521  Z M 28.8624708438046 0.181451612903224  L 22.5786713286713 0.181451612903224  C 21.4765032494931 0.181451584551414  20.5832904445425 1.08590861049269  20.5832904445425 2.20161289377521  C 20.5832904445425 3.31731717705771  21.4765032494931 4.22177420299899  22.5783370832554 4.22177420299899  L 28.8624708438046 4.22177417464718  C 29.9641741334147 4.22158727432255  30.8571832371015 3.31718500520512  30.8571832371015 2.20161289377521  C 30.8571832371015 1.08604078234528  29.9641741334147 0.181638513227854  28.8624708438046 0.181451612903224  Z M 40.808857827524 12.6774193359375  C 40.8090189685883 11.9710480708699  40.534326029169 11.2930552485329  40.0442890256228 10.790322561744  L 35.3374125874126 6.03629030367943  C 34.3221651275529 5.01686828254951  32.6851192733977 5.01686828254951  31.669871813538 6.03629030367943  L 12.9737762237762 24.9193548576109  C 12.5078671328671 25.4032258064516  12.3884032820695 25.5241935861895  10.7159090909091 32.5161290322581  C 10.6642547834657 32.7258285268255  10.6381364719378 32.9411405685864  10.6381364719378 33.1572647107996  C 10.6381364719378 34.6180602952919  11.8059117955666 35.8031841111562  13.2485431422094 35.8064516318044  C 13.457660813116 35.8061696003013  13.6660692064822 35.7818197597467  13.8697552447552 35.7338709866431  C 20.7747669184331 34.0403225806452  20.8942307692308 33.9193548576109  21.37208622842 33.4354838520665  L 40.0562354499017 14.5161290322581  C 40.539076078548 14.0292788701021  40.8099998974806 13.3673928198771  40.808857827524 12.6774193359375  Z M 36.2931235617898 12.6653225806452  L 18.8752913939576 30.3024193548387  C 18.3496503496504 30.4596774004536  17.1550116736779 30.7862903036794  15.0882867132867 31.3064516318044  C 15.6019813333151 29.2137096774194  15.9245337808676 28.0040322769657  16.0798368485031 27.4717741935484  L 33.4976690163352 9.83467741935484  L 36.2931235617898 12.6653225806452  Z " fill-rule="nonzero" fill="#31969a" stroke="none" transform="matrix(1 0 0 1 83 31 )" />
  </g>
</svg>