<?xml version="1.0" standalone="no"?><!DOCTYPE svg PUBLIC "-//W3C//DTD SVG 1.1//EN" "http://www.w3.org/Graphics/SVG/1.1/DTD/svg11.dtd"><svg t="1667215516577" class="icon" viewBox="0 0 1024 1024" version="1.1" xmlns="http://www.w3.org/2000/svg" p-id="2186" xmlns:xlink="http://www.w3.org/1999/xlink" width="200" height="200"><path d="M722.678 524.908c-59.267-46.975-132.445-74.779-211.678-74.78 106.324-0.003 192.516-86.196 192.516-192.521 0-106.327-86.195-192.521-192.522-192.521s-192.521 86.194-192.521 192.52c0 106.325 86.191 192.518 192.515 192.521-197.461 0.004-357.534 172.391-357.534 385.043h366.899c-1.404-11.512-2.348-23.161-2.348-35.053 0-129.959 86.298-239.655 204.673-275.209z" p-id="2187" fill="#ffffff"></path><path d="M950.739 930.995l-55.718-55.211c24.51-29.577 39.245-67.547 39.245-108.96 0-94.373-76.505-170.878-170.878-170.878S592.51 672.451 592.51 766.824s76.505 170.878 170.878 170.878c29.735 0 57.692-7.601 82.045-20.957l60.538 59.988c6.227 6.094 14.307 9.131 22.382 9.131 8.305 0 16.603-3.213 22.871-9.616 12.361-12.631 12.144-32.891-0.485-45.253z" p-id="2188" fill="#ffffff"></path></svg>