<?xml version="1.0" encoding="utf-8"?>
<svg version="1.1" xmlns:xlink="http://www.w3.org/1999/xlink" width="14px" height="16px" xmlns="http://www.w3.org/2000/svg">
  <g transform="matrix(1 0 0 1 -943 -343 )">
    <path d="M 0.0268199286099138 14.857066671875  C 0.0268199286099138 11.70133334375  2.59992337688578 9.14293334375  5.77379310344828 9.142933328125  L 8.22620689655172 9.142933328125  C 11.4000766231142 9.142933328125  13.9731800713901 11.701333328125  13.9731800713901 14.857066671875  C 13.9731800713901 15.488533328125  13.4582375426545 16  12.8236781609195 16  L 1.17632183908046 16  C 0.541469464026215 16  0.0268199286099138 15.4882913190718  0.0268199286099138 14.857066671875  Z M 11.0675095837823 4  C 11.0675095837823 6.209066671875  9.2464367816092 8  7 8  C 4.7535632183908 8  2.93249041621767 6.209066671875  2.93249041621767 4  C 2.93249041621767 1.790933328125  4.7535632183908 0  7 0  C 9.24643678160919 0  11.0675095837823 1.790933328125  11.0675095837823 4  Z " fill-rule="nonzero" fill="#d9d9d9" stroke="none" transform="matrix(1 0 0 1 943 343 )" />
  </g>
</svg>