<?xml version="1.0" encoding="utf-8"?>
<svg version="1.1" xmlns:xlink="http://www.w3.org/1999/xlink" width="17px" height="17px" xmlns="http://www.w3.org/2000/svg">
  <g transform="matrix(1 0 0 1 -1120 -191 )">
    <path d="M 5.289 13.28  L 11.854 6.946  L 8.80100000000001 4.068  L 2.26900000000001 10.368  L 1.13200000000001 14.389  L 1.13200000000001 14.396  L 5.289 13.28  Z M 11.36 1.60299999999999  L 11.354 1.603  L 9.722 3.18  L 12.789 6.049  L 14.377 4.516  C 14.7762342142394 4.13671439793281  15.0022772134564 3.6101773336127  15.0022772134564 3.0595  C 15.0022772134564 2.5088226663873  14.7762342142394 1.98228560206718  14.377 1.60299999999999  C 13.532102955871 0.798809349970369  12.204897044129 0.798809349970377  11.36 1.60299999999999  Z M 0.00300000000000722 17  L 0.00300000000000011 15  L 16.003 15  L 16.003 17  L 0.00300000000000722 17  Z " fill-rule="nonzero" fill="#31969a" stroke="none" transform="matrix(1 0 0 1 1120 191 )" />
  </g>
</svg>